<svg width="32" height="32" viewBox="0 0 32 32" fill="none" xmlns="http://www.w3.org/2000/svg">
<path d="M11 15.8889L14.1363 19.4434C14.2415 19.5625 14.4268 19.5639 14.5336 19.4463L21 12.3333" stroke="#777E90" stroke-width="2" stroke-linecap="round"/>
<path d="M4.3989 7.34831C4.5437 5.78362 5.79353 4.55089 7.35868 4.41603C13.7925 3.86165 18.2596 3.86003 24.6418 4.41261C26.2146 4.54879 27.4661 5.79391 27.6053 7.36689C28.167 13.7156 28.1152 18.1983 27.5854 24.6002C27.4538 26.1908 26.1939 27.4575 24.604 27.5923C18.2031 28.135 13.7412 28.1338 7.4219 27.595C5.82823 27.4591 4.56828 26.1855 4.4381 24.5909C3.92073 18.2538 3.8056 13.7599 4.3989 7.34831Z" stroke="#777E90" stroke-width="2"/>
</svg>
