<svg width="737" height="80" viewBox="0 0 737 80" fill="none" xmlns="http://www.w3.org/2000/svg">
<g clip-path="url(#clip0_3217_2897)">
<rect width="737" height="80" rx="14" fill="#FFEECC"/>
<g filter="url(#filter0_d_3217_2897)">
<path d="M45 57.5C54.665 57.5 62.5 49.665 62.5 40C62.5 30.335 54.665 22.5 45 22.5C35.335 22.5 27.5 30.335 27.5 40C27.5 49.665 35.335 57.5 45 57.5Z" fill="#FFA800"/>
</g>
<g clip-path="url(#clip1_3217_2897)">
<path d="M44.9993 48.3334C49.6017 48.3334 53.3327 44.6025 53.3327 40.0001C53.3327 35.3977 49.6017 31.6667 44.9993 31.6667C40.397 31.6667 36.666 35.3977 36.666 40.0001C36.666 44.6025 40.397 48.3334 44.9993 48.3334Z" stroke="#1F2026" stroke-width="2" stroke-linecap="round" stroke-linejoin="round"/>
<path d="M45 36.6667V40" stroke="#1F2026" stroke-width="2" stroke-linecap="round" stroke-linejoin="round"/>
<path d="M45 43.3333H45.0088" stroke="#1F2026" stroke-width="2" stroke-linecap="round" stroke-linejoin="round"/>
</g>
<path d="M590 74.5C590 82.4818 592.768 90.2166 597.831 96.3866C602.895 102.557 609.941 106.78 617.769 108.337C625.598 109.894 633.724 108.689 640.763 104.926C647.802 101.164 653.319 95.0768 656.374 87.7026C659.428 80.3284 659.831 72.1232 657.514 64.4852C655.197 56.8471 650.304 50.2487 643.667 45.8143C637.031 41.3799 629.062 39.3838 621.118 40.1661" stroke="#FFE5B3" stroke-width="15" stroke-linecap="round"/>
<path d="M228 -16.5C228 -8.51824 230.768 -0.783413 235.831 5.38657C240.895 11.5565 247.941 15.7799 255.769 17.3371C263.598 18.8943 271.724 17.6889 278.763 13.9263C285.802 10.1637 291.319 4.07676 294.374 -3.29742C297.428 -10.6716 297.831 -18.8768 295.514 -26.5148C293.197 -34.1529 288.304 -40.7513 281.667 -45.1857C275.031 -49.6201 267.062 -51.6162 259.118 -50.8339" stroke="#FFE5B3" stroke-width="15" stroke-linecap="round"/>
<path d="M81.668 30.08L77.916 24.004H79.946L82.592 28.484L85.196 24.004H87.156L83.418 30.08V34H81.668V30.08ZM89.811 34.196C89.2323 34.196 88.7143 34.1027 88.257 33.916C87.809 33.72 87.4263 33.454 87.109 33.118C86.801 32.782 86.563 32.3807 86.395 31.914C86.2363 31.4473 86.157 30.934 86.157 30.374C86.157 29.8233 86.2363 29.3147 86.395 28.848C86.563 28.3813 86.801 27.98 87.109 27.644C87.4263 27.308 87.809 27.0467 88.257 26.86C88.7143 26.664 89.2323 26.566 89.811 26.566C90.3896 26.566 90.903 26.664 91.351 26.86C91.8083 27.0467 92.191 27.308 92.499 27.644C92.8163 27.98 93.0543 28.3813 93.213 28.848C93.381 29.3147 93.465 29.8233 93.465 30.374C93.465 30.934 93.381 31.4473 93.213 31.914C93.0543 32.3807 92.8163 32.782 92.499 33.118C92.191 33.454 91.8083 33.72 91.351 33.916C90.903 34.1027 90.3896 34.196 89.811 34.196ZM89.811 32.936C90.1656 32.936 90.4736 32.8613 90.735 32.712C90.9963 32.5627 91.211 32.3667 91.379 32.124C91.547 31.8813 91.6683 31.6107 91.743 31.312C91.827 31.004 91.869 30.6913 91.869 30.374C91.869 30.066 91.827 29.758 91.743 29.45C91.6683 29.142 91.547 28.8713 91.379 28.638C91.211 28.3953 90.9963 28.1993 90.735 28.05C90.4736 27.9007 90.1656 27.826 89.811 27.826C89.4563 27.826 89.1483 27.9007 88.887 28.05C88.6256 28.1993 88.411 28.3953 88.243 28.638C88.075 28.8713 87.949 29.142 87.865 29.45C87.7903 29.758 87.753 30.066 87.753 30.374C87.753 30.6913 87.7903 31.004 87.865 31.312C87.949 31.6107 88.075 31.8813 88.243 32.124C88.411 32.3667 88.6256 32.5627 88.887 32.712C89.1483 32.8613 89.4563 32.936 89.811 32.936ZM101.008 34H99.4398V32.992H99.4118C99.2158 33.356 98.9218 33.65 98.5298 33.874C98.1471 34.0887 97.7551 34.196 97.3538 34.196C96.4018 34.196 95.7111 33.9627 95.2818 33.496C94.8618 33.02 94.6518 32.306 94.6518 31.354V26.762H96.2478V31.2C96.2478 31.8347 96.3691 32.2827 96.6118 32.544C96.8545 32.8053 97.1951 32.936 97.6338 32.936C97.9698 32.936 98.2498 32.8847 98.4738 32.782C98.6978 32.6793 98.8798 32.544 99.0198 32.376C99.1598 32.1987 99.2578 31.9887 99.3138 31.746C99.3791 31.5033 99.4118 31.242 99.4118 30.962V26.762H101.008V34ZM102.551 26.762H104.049V28.162H104.077C104.124 27.966 104.212 27.7747 104.343 27.588C104.483 27.4013 104.646 27.2333 104.833 27.084C105.029 26.9253 105.244 26.7993 105.477 26.706C105.71 26.6127 105.948 26.566 106.191 26.566C106.378 26.566 106.504 26.5707 106.569 26.58C106.644 26.5893 106.718 26.5987 106.793 26.608V28.148C106.681 28.1293 106.564 28.1153 106.443 28.106C106.331 28.0873 106.219 28.078 106.107 28.078C105.836 28.078 105.58 28.134 105.337 28.246C105.104 28.3487 104.898 28.5073 104.721 28.722C104.544 28.9273 104.404 29.184 104.301 29.492C104.198 29.8 104.147 30.1547 104.147 30.556V34H102.551V26.762ZM118.061 27.182C117.987 26.8927 117.884 26.6267 117.753 26.384C117.623 26.1413 117.455 25.9313 117.249 25.754C117.044 25.5767 116.801 25.4413 116.521 25.348C116.251 25.2453 115.933 25.194 115.569 25.194C115.037 25.194 114.575 25.3013 114.183 25.516C113.801 25.7307 113.488 26.02 113.245 26.384C113.003 26.7387 112.821 27.1447 112.699 27.602C112.587 28.0593 112.531 28.526 112.531 29.002C112.531 29.478 112.587 29.9447 112.699 30.402C112.821 30.8593 113.003 31.27 113.245 31.634C113.488 31.9887 113.801 32.2733 114.183 32.488C114.575 32.7027 115.037 32.81 115.569 32.81C115.961 32.81 116.307 32.7447 116.605 32.614C116.904 32.474 117.161 32.2873 117.375 32.054C117.59 31.8113 117.758 31.5313 117.879 31.214C118.001 30.8967 118.08 30.556 118.117 30.192H119.825C119.788 30.7893 119.657 31.3353 119.433 31.83C119.219 32.3247 118.925 32.754 118.551 33.118C118.178 33.4727 117.739 33.748 117.235 33.944C116.731 34.14 116.176 34.238 115.569 34.238C114.823 34.238 114.151 34.1027 113.553 33.832C112.965 33.552 112.466 33.174 112.055 32.698C111.645 32.222 111.327 31.6667 111.103 31.032C110.889 30.3973 110.781 29.7207 110.781 29.002C110.781 28.2927 110.889 27.6207 111.103 26.986C111.327 26.3513 111.645 25.796 112.055 25.32C112.466 24.844 112.965 24.466 113.553 24.186C114.151 23.906 114.823 23.766 115.569 23.766C116.129 23.766 116.657 23.8453 117.151 24.004C117.646 24.1533 118.08 24.3773 118.453 24.676C118.836 24.9653 119.144 25.32 119.377 25.74C119.611 26.16 119.755 26.6407 119.811 27.182H118.061ZM121.053 24.004H122.649V27.714H122.677C122.873 27.3873 123.162 27.1167 123.545 26.902C123.937 26.678 124.371 26.566 124.847 26.566C125.64 26.566 126.265 26.7713 126.723 27.182C127.18 27.5927 127.409 28.2087 127.409 29.03V34H125.813V29.45C125.794 28.8807 125.673 28.47 125.449 28.218C125.225 27.9567 124.875 27.826 124.399 27.826C124.128 27.826 123.885 27.8773 123.671 27.98C123.456 28.0733 123.274 28.2087 123.125 28.386C122.975 28.554 122.859 28.7547 122.775 28.988C122.691 29.2213 122.649 29.4687 122.649 29.73V34H121.053V24.004ZM133.922 29.744C133.903 29.492 133.847 29.2493 133.754 29.016C133.67 28.7827 133.548 28.582 133.39 28.414C133.24 28.2367 133.054 28.0967 132.83 27.994C132.615 27.882 132.372 27.826 132.102 27.826C131.822 27.826 131.565 27.8773 131.332 27.98C131.108 28.0733 130.912 28.2087 130.744 28.386C130.585 28.554 130.454 28.7547 130.352 28.988C130.258 29.2213 130.207 29.4733 130.198 29.744H133.922ZM130.198 30.794C130.198 31.074 130.235 31.3447 130.31 31.606C130.394 31.8673 130.515 32.096 130.674 32.292C130.832 32.488 131.033 32.6467 131.276 32.768C131.518 32.88 131.808 32.936 132.144 32.936C132.61 32.936 132.984 32.838 133.264 32.642C133.553 32.4367 133.768 32.1333 133.908 31.732H135.42C135.336 32.124 135.191 32.474 134.986 32.782C134.78 33.09 134.533 33.3513 134.244 33.566C133.954 33.7713 133.628 33.9253 133.264 34.028C132.909 34.14 132.536 34.196 132.144 34.196C131.574 34.196 131.07 34.1027 130.632 33.916C130.193 33.7293 129.82 33.468 129.512 33.132C129.213 32.796 128.984 32.3947 128.826 31.928C128.676 31.4613 128.602 30.948 128.602 30.388C128.602 29.8747 128.681 29.3893 128.84 28.932C129.008 28.4653 129.241 28.0593 129.54 27.714C129.848 27.3593 130.216 27.0793 130.646 26.874C131.075 26.6687 131.56 26.566 132.102 26.566C132.671 26.566 133.18 26.6873 133.628 26.93C134.085 27.1633 134.463 27.476 134.762 27.868C135.06 28.26 135.275 28.7127 135.406 29.226C135.546 29.73 135.583 30.2527 135.518 30.794H130.198ZM141.477 29.184C141.412 28.736 141.23 28.4 140.931 28.176C140.642 27.9427 140.273 27.826 139.825 27.826C139.62 27.826 139.4 27.8633 139.167 27.938C138.934 28.0033 138.719 28.134 138.523 28.33C138.327 28.5167 138.164 28.7827 138.033 29.128C137.902 29.464 137.837 29.9073 137.837 30.458C137.837 30.7567 137.87 31.0553 137.935 31.354C138.01 31.6527 138.122 31.9187 138.271 32.152C138.43 32.3853 138.63 32.5767 138.873 32.726C139.116 32.866 139.41 32.936 139.755 32.936C140.222 32.936 140.604 32.7913 140.903 32.502C141.211 32.2127 141.402 31.8067 141.477 31.284H143.073C142.924 32.2267 142.564 32.95 141.995 33.454C141.435 33.9487 140.688 34.196 139.755 34.196C139.186 34.196 138.682 34.1027 138.243 33.916C137.814 33.72 137.45 33.4587 137.151 33.132C136.852 32.796 136.624 32.3993 136.465 31.942C136.316 31.4847 136.241 30.99 136.241 30.458C136.241 29.9167 136.316 29.408 136.465 28.932C136.614 28.456 136.838 28.0453 137.137 27.7C137.436 27.3453 137.804 27.07 138.243 26.874C138.691 26.6687 139.214 26.566 139.811 26.566C140.231 26.566 140.628 26.622 141.001 26.734C141.384 26.8367 141.72 26.9953 142.009 27.21C142.308 27.4247 142.55 27.6953 142.737 28.022C142.924 28.3487 143.036 28.736 143.073 29.184H141.477ZM144.272 24.004H145.868V29.688L148.752 26.762H150.712L147.94 29.422L150.978 34H149.032L146.82 30.486L145.868 31.41V34H144.272V24.004ZM154.928 34.196C154.349 34.196 153.831 34.1027 153.374 33.916C152.926 33.72 152.543 33.454 152.226 33.118C151.918 32.782 151.68 32.3807 151.512 31.914C151.353 31.4473 151.274 30.934 151.274 30.374C151.274 29.8233 151.353 29.3147 151.512 28.848C151.68 28.3813 151.918 27.98 152.226 27.644C152.543 27.308 152.926 27.0467 153.374 26.86C153.831 26.664 154.349 26.566 154.928 26.566C155.507 26.566 156.02 26.664 156.468 26.86C156.925 27.0467 157.308 27.308 157.616 27.644C157.933 27.98 158.171 28.3813 158.33 28.848C158.498 29.3147 158.582 29.8233 158.582 30.374C158.582 30.934 158.498 31.4473 158.33 31.914C158.171 32.3807 157.933 32.782 157.616 33.118C157.308 33.454 156.925 33.72 156.468 33.916C156.02 34.1027 155.507 34.196 154.928 34.196ZM154.928 32.936C155.283 32.936 155.591 32.8613 155.852 32.712C156.113 32.5627 156.328 32.3667 156.496 32.124C156.664 31.8813 156.785 31.6107 156.86 31.312C156.944 31.004 156.986 30.6913 156.986 30.374C156.986 30.066 156.944 29.758 156.86 29.45C156.785 29.142 156.664 28.8713 156.496 28.638C156.328 28.3953 156.113 28.1993 155.852 28.05C155.591 27.9007 155.283 27.826 154.928 27.826C154.573 27.826 154.265 27.9007 154.004 28.05C153.743 28.1993 153.528 28.3953 153.36 28.638C153.192 28.8713 153.066 29.142 152.982 29.45C152.907 29.758 152.87 30.066 152.87 30.374C152.87 30.6913 152.907 31.004 152.982 31.312C153.066 31.6107 153.192 31.8813 153.36 32.124C153.528 32.3667 153.743 32.5627 154.004 32.712C154.265 32.8613 154.573 32.936 154.928 32.936ZM166.125 34H164.557V32.992H164.529C164.333 33.356 164.039 33.65 163.647 33.874C163.264 34.0887 162.872 34.196 162.471 34.196C161.519 34.196 160.828 33.9627 160.399 33.496C159.979 33.02 159.769 32.306 159.769 31.354V26.762H161.365V31.2C161.365 31.8347 161.486 32.2827 161.729 32.544C161.971 32.8053 162.312 32.936 162.751 32.936C163.087 32.936 163.367 32.8847 163.591 32.782C163.815 32.6793 163.997 32.544 164.137 32.376C164.277 32.1987 164.375 31.9887 164.431 31.746C164.496 31.5033 164.529 31.242 164.529 30.962V26.762H166.125V34ZM166.94 26.762H168.144V24.592H169.74V26.762H171.182V27.952H169.74V31.816C169.74 31.984 169.744 32.1287 169.754 32.25C169.772 32.3713 169.805 32.474 169.852 32.558C169.908 32.642 169.987 32.7073 170.09 32.754C170.192 32.7913 170.332 32.81 170.51 32.81C170.622 32.81 170.734 32.81 170.846 32.81C170.958 32.8007 171.07 32.782 171.182 32.754V33.986C171.004 34.0047 170.832 34.0233 170.664 34.042C170.496 34.0607 170.323 34.07 170.146 34.07C169.726 34.07 169.385 34.0327 169.124 33.958C168.872 33.874 168.671 33.7573 168.522 33.608C168.382 33.4493 168.284 33.2533 168.228 33.02C168.181 32.7867 168.153 32.5207 168.144 32.222V27.952H166.94V26.762ZM175.988 24.004H177.584V25.516H175.988V24.004ZM175.988 26.762H177.584V34H175.988V26.762ZM180.387 31.676C180.434 32.1427 180.611 32.4693 180.919 32.656C181.227 32.8427 181.596 32.936 182.025 32.936C182.175 32.936 182.343 32.9267 182.529 32.908C182.725 32.88 182.907 32.8333 183.075 32.768C183.243 32.7027 183.379 32.6093 183.481 32.488C183.593 32.3573 183.645 32.1893 183.635 31.984C183.626 31.7787 183.551 31.6107 183.411 31.48C183.271 31.3493 183.089 31.2467 182.865 31.172C182.651 31.088 182.403 31.018 182.123 30.962C181.843 30.906 181.559 30.8453 181.269 30.78C180.971 30.7147 180.681 30.6353 180.401 30.542C180.131 30.4487 179.883 30.3227 179.659 30.164C179.445 30.0053 179.272 29.8047 179.141 29.562C179.011 29.31 178.945 29.002 178.945 28.638C178.945 28.246 179.039 27.9193 179.225 27.658C179.421 27.3873 179.664 27.1727 179.953 27.014C180.252 26.846 180.579 26.7293 180.933 26.664C181.297 26.5987 181.643 26.566 181.969 26.566C182.343 26.566 182.697 26.608 183.033 26.692C183.379 26.7667 183.687 26.8927 183.957 27.07C184.237 27.2473 184.466 27.4807 184.643 27.77C184.83 28.05 184.947 28.3907 184.993 28.792H183.327C183.253 28.4093 183.075 28.1527 182.795 28.022C182.525 27.8913 182.212 27.826 181.857 27.826C181.745 27.826 181.61 27.8353 181.451 27.854C181.302 27.8727 181.157 27.91 181.017 27.966C180.887 28.0127 180.775 28.0873 180.681 28.19C180.588 28.2833 180.541 28.4093 180.541 28.568C180.541 28.764 180.607 28.9227 180.737 29.044C180.877 29.1653 181.055 29.268 181.269 29.352C181.493 29.4267 181.745 29.492 182.025 29.548C182.305 29.604 182.595 29.6647 182.893 29.73C183.183 29.7953 183.467 29.8747 183.747 29.968C184.027 30.0613 184.275 30.1873 184.489 30.346C184.713 30.5047 184.891 30.7053 185.021 30.948C185.161 31.1907 185.231 31.4893 185.231 31.844C185.231 32.2733 185.133 32.6373 184.937 32.936C184.741 33.2347 184.485 33.4773 184.167 33.664C183.859 33.8507 183.514 33.986 183.131 34.07C182.749 34.154 182.371 34.196 181.997 34.196C181.54 34.196 181.115 34.1447 180.723 34.042C180.341 33.9393 180.005 33.7853 179.715 33.58C179.435 33.3653 179.211 33.104 179.043 32.796C178.885 32.4787 178.801 32.1053 178.791 31.676H180.387ZM193.378 34.196C192.799 34.196 192.281 34.1027 191.824 33.916C191.376 33.72 190.993 33.454 190.676 33.118C190.368 32.782 190.13 32.3807 189.962 31.914C189.803 31.4473 189.724 30.934 189.724 30.374C189.724 29.8233 189.803 29.3147 189.962 28.848C190.13 28.3813 190.368 27.98 190.676 27.644C190.993 27.308 191.376 27.0467 191.824 26.86C192.281 26.664 192.799 26.566 193.378 26.566C193.956 26.566 194.47 26.664 194.918 26.86C195.375 27.0467 195.758 27.308 196.066 27.644C196.383 27.98 196.621 28.3813 196.78 28.848C196.948 29.3147 197.032 29.8233 197.032 30.374C197.032 30.934 196.948 31.4473 196.78 31.914C196.621 32.3807 196.383 32.782 196.066 33.118C195.758 33.454 195.375 33.72 194.918 33.916C194.47 34.1027 193.956 34.196 193.378 34.196ZM193.378 32.936C193.732 32.936 194.04 32.8613 194.302 32.712C194.563 32.5627 194.778 32.3667 194.946 32.124C195.114 31.8813 195.235 31.6107 195.31 31.312C195.394 31.004 195.436 30.6913 195.436 30.374C195.436 30.066 195.394 29.758 195.31 29.45C195.235 29.142 195.114 28.8713 194.946 28.638C194.778 28.3953 194.563 28.1993 194.302 28.05C194.04 27.9007 193.732 27.826 193.378 27.826C193.023 27.826 192.715 27.9007 192.454 28.05C192.192 28.1993 191.978 28.3953 191.81 28.638C191.642 28.8713 191.516 29.142 191.432 29.45C191.357 29.758 191.32 30.066 191.32 30.374C191.32 30.6913 191.357 31.004 191.432 31.312C191.516 31.6107 191.642 31.8813 191.81 32.124C191.978 32.3667 192.192 32.5627 192.454 32.712C192.715 32.8613 193.023 32.936 193.378 32.936ZM198.218 26.762H199.73V27.826L199.758 27.854C200.001 27.4527 200.318 27.14 200.71 26.916C201.102 26.6827 201.536 26.566 202.012 26.566C202.806 26.566 203.431 26.7713 203.888 27.182C204.346 27.5927 204.574 28.2087 204.574 29.03V34H202.978V29.45C202.96 28.8807 202.838 28.47 202.614 28.218C202.39 27.9567 202.04 27.826 201.564 27.826C201.294 27.826 201.051 27.8773 200.836 27.98C200.622 28.0733 200.44 28.2087 200.29 28.386C200.141 28.554 200.024 28.7547 199.94 28.988C199.856 29.2213 199.814 29.4687 199.814 29.73V34H198.218V26.762ZM210.056 24.004H211.806V27.98H216.356V24.004H218.106V34H216.356V29.492H211.806V34H210.056V24.004ZM223.155 34.196C222.577 34.196 222.059 34.1027 221.601 33.916C221.153 33.72 220.771 33.454 220.453 33.118C220.145 32.782 219.907 32.3807 219.739 31.914C219.581 31.4473 219.501 30.934 219.501 30.374C219.501 29.8233 219.581 29.3147 219.739 28.848C219.907 28.3813 220.145 27.98 220.453 27.644C220.771 27.308 221.153 27.0467 221.601 26.86C222.059 26.664 222.577 26.566 223.155 26.566C223.734 26.566 224.247 26.664 224.695 26.86C225.153 27.0467 225.535 27.308 225.843 27.644C226.161 27.98 226.399 28.3813 226.557 28.848C226.725 29.3147 226.809 29.8233 226.809 30.374C226.809 30.934 226.725 31.4473 226.557 31.914C226.399 32.3807 226.161 32.782 225.843 33.118C225.535 33.454 225.153 33.72 224.695 33.916C224.247 34.1027 223.734 34.196 223.155 34.196ZM223.155 32.936C223.51 32.936 223.818 32.8613 224.079 32.712C224.341 32.5627 224.555 32.3667 224.723 32.124C224.891 31.8813 225.013 31.6107 225.087 31.312C225.171 31.004 225.213 30.6913 225.213 30.374C225.213 30.066 225.171 29.758 225.087 29.45C225.013 29.142 224.891 28.8713 224.723 28.638C224.555 28.3953 224.341 28.1993 224.079 28.05C223.818 27.9007 223.51 27.826 223.155 27.826C222.801 27.826 222.493 27.9007 222.231 28.05C221.97 28.1993 221.755 28.3953 221.587 28.638C221.419 28.8713 221.293 29.142 221.209 29.45C221.135 29.758 221.097 30.066 221.097 30.374C221.097 30.6913 221.135 31.004 221.209 31.312C221.293 31.6107 221.419 31.8813 221.587 32.124C221.755 32.3667 221.97 32.5627 222.231 32.712C222.493 32.8613 222.801 32.936 223.155 32.936ZM228.038 24.004H229.634V34H228.038V24.004ZM238.051 34H236.539V33.02H236.511C236.297 33.44 235.984 33.7433 235.573 33.93C235.163 34.1073 234.729 34.196 234.271 34.196C233.702 34.196 233.203 34.098 232.773 33.902C232.353 33.6967 232.003 33.4213 231.723 33.076C231.443 32.7307 231.233 32.3247 231.093 31.858C230.953 31.382 230.883 30.8733 230.883 30.332C230.883 29.6787 230.972 29.114 231.149 28.638C231.327 28.162 231.56 27.77 231.849 27.462C232.148 27.154 232.484 26.93 232.857 26.79C233.24 26.6407 233.627 26.566 234.019 26.566C234.243 26.566 234.472 26.5893 234.705 26.636C234.939 26.6733 235.163 26.7387 235.377 26.832C235.592 26.9253 235.788 27.0467 235.965 27.196C236.152 27.336 236.306 27.504 236.427 27.7H236.455V24.004H238.051V34ZM232.479 30.458C232.479 30.766 232.517 31.0693 232.591 31.368C232.675 31.6667 232.797 31.9327 232.955 32.166C233.123 32.3993 233.333 32.586 233.585 32.726C233.837 32.866 234.136 32.936 234.481 32.936C234.836 32.936 235.139 32.8613 235.391 32.712C235.653 32.5627 235.863 32.3667 236.021 32.124C236.189 31.8813 236.311 31.6107 236.385 31.312C236.469 31.004 236.511 30.6913 236.511 30.374C236.511 29.5713 236.329 28.946 235.965 28.498C235.611 28.05 235.125 27.826 234.509 27.826C234.136 27.826 233.819 27.9053 233.557 28.064C233.305 28.2133 233.095 28.414 232.927 28.666C232.769 28.9087 232.652 29.1887 232.577 29.506C232.512 29.814 232.479 30.1313 232.479 30.458Z" fill="#1F2026"/>
<path d="M86.676 58H85.488L83.532 50.8H83.508L81.528 58H80.34L78.144 49.432H79.308L80.988 56.56H81.012L82.932 49.432H84.168L86.064 56.56H86.088L87.828 49.432H88.968L86.676 58ZM93.3857 54.304C93.3697 54.064 93.3137 53.836 93.2177 53.62C93.1297 53.404 93.0057 53.22 92.8457 53.068C92.6937 52.908 92.5097 52.784 92.2937 52.696C92.0857 52.6 91.8537 52.552 91.5977 52.552C91.3337 52.552 91.0937 52.6 90.8777 52.696C90.6697 52.784 90.4897 52.908 90.3377 53.068C90.1857 53.228 90.0657 53.416 89.9777 53.632C89.8897 53.84 89.8377 54.064 89.8217 54.304H93.3857ZM94.3697 56.032C94.2337 56.728 93.9337 57.252 93.4697 57.604C93.0057 57.956 92.4217 58.132 91.7177 58.132C91.2217 58.132 90.7897 58.052 90.4217 57.892C90.0617 57.732 89.7577 57.508 89.5097 57.22C89.2617 56.932 89.0737 56.588 88.9457 56.188C88.8257 55.788 88.7577 55.352 88.7417 54.88C88.7417 54.408 88.8137 53.976 88.9577 53.584C89.1017 53.192 89.3017 52.852 89.5577 52.564C89.8217 52.276 90.1297 52.052 90.4817 51.892C90.8417 51.732 91.2337 51.652 91.6577 51.652C92.2097 51.652 92.6657 51.768 93.0257 52C93.3937 52.224 93.6857 52.512 93.9017 52.864C94.1257 53.216 94.2777 53.6 94.3577 54.016C94.4457 54.432 94.4817 54.828 94.4657 55.204H89.8217C89.8137 55.476 89.8457 55.736 89.9177 55.984C89.9897 56.224 90.1057 56.44 90.2657 56.632C90.4257 56.816 90.6297 56.964 90.8777 57.076C91.1257 57.188 91.4177 57.244 91.7537 57.244C92.1857 57.244 92.5377 57.144 92.8097 56.944C93.0897 56.744 93.2737 56.44 93.3617 56.032H94.3697ZM98.6228 49.432H99.6428V52.708H99.6668C99.7468 52.516 99.8588 52.356 100.003 52.228C100.147 52.092 100.307 51.984 100.483 51.904C100.667 51.816 100.855 51.752 101.047 51.712C101.247 51.672 101.439 51.652 101.623 51.652C102.031 51.652 102.371 51.708 102.643 51.82C102.915 51.932 103.135 52.088 103.303 52.288C103.471 52.488 103.587 52.728 103.651 53.008C103.723 53.28 103.759 53.584 103.759 53.92V58H102.739V53.8C102.739 53.416 102.627 53.112 102.403 52.888C102.179 52.664 101.871 52.552 101.479 52.552C101.167 52.552 100.895 52.6 100.663 52.696C100.439 52.792 100.251 52.928 100.099 53.104C99.9468 53.28 99.8308 53.488 99.7508 53.728C99.6788 53.96 99.6428 54.216 99.6428 54.496V58H98.6228V49.432ZM105.915 54.904C105.915 55.28 105.963 55.616 106.059 55.912C106.163 56.2 106.303 56.444 106.479 56.644C106.655 56.836 106.859 56.984 107.091 57.088C107.331 57.192 107.583 57.244 107.847 57.244C108.111 57.244 108.359 57.192 108.591 57.088C108.831 56.984 109.039 56.836 109.215 56.644C109.391 56.444 109.527 56.2 109.623 55.912C109.727 55.616 109.779 55.28 109.779 54.904C109.779 54.528 109.727 54.196 109.623 53.908C109.527 53.612 109.391 53.364 109.215 53.164C109.039 52.964 108.831 52.812 108.591 52.708C108.359 52.604 108.111 52.552 107.847 52.552C107.583 52.552 107.331 52.604 107.091 52.708C106.859 52.812 106.655 52.964 106.479 53.164C106.303 53.364 106.163 53.612 106.059 53.908C105.963 54.196 105.915 54.528 105.915 54.904ZM104.835 54.904C104.835 54.448 104.899 54.024 105.027 53.632C105.155 53.232 105.347 52.888 105.603 52.6C105.859 52.304 106.175 52.072 106.551 51.904C106.927 51.736 107.359 51.652 107.847 51.652C108.343 51.652 108.775 51.736 109.143 51.904C109.519 52.072 109.835 52.304 110.091 52.6C110.347 52.888 110.539 53.232 110.667 53.632C110.795 54.024 110.859 54.448 110.859 54.904C110.859 55.36 110.795 55.784 110.667 56.176C110.539 56.568 110.347 56.912 110.091 57.208C109.835 57.496 109.519 57.724 109.143 57.892C108.775 58.052 108.343 58.132 107.847 58.132C107.359 58.132 106.927 58.052 106.551 57.892C106.175 57.724 105.859 57.496 105.603 57.208C105.347 56.912 105.155 56.568 105.027 56.176C104.899 55.784 104.835 55.36 104.835 54.904ZM112.001 49.432H113.021V58H112.001V49.432ZM115.226 54.952C115.226 55.24 115.262 55.524 115.334 55.804C115.414 56.076 115.53 56.32 115.682 56.536C115.842 56.752 116.042 56.924 116.282 57.052C116.53 57.18 116.818 57.244 117.146 57.244C117.49 57.244 117.782 57.176 118.022 57.04C118.262 56.904 118.458 56.728 118.61 56.512C118.762 56.288 118.87 56.036 118.934 55.756C119.006 55.476 119.042 55.192 119.042 54.904C119.042 54.6 119.006 54.308 118.934 54.028C118.862 53.74 118.746 53.488 118.586 53.272C118.434 53.056 118.234 52.884 117.986 52.756C117.738 52.62 117.438 52.552 117.086 52.552C116.742 52.552 116.45 52.62 116.21 52.756C115.97 52.892 115.778 53.072 115.634 53.296C115.49 53.52 115.386 53.776 115.322 54.064C115.258 54.352 115.226 54.648 115.226 54.952ZM120.026 58H119.006V57.16H118.982C118.814 57.504 118.55 57.752 118.19 57.904C117.83 58.056 117.434 58.132 117.002 58.132C116.522 58.132 116.102 58.044 115.742 57.868C115.39 57.692 115.094 57.456 114.854 57.16C114.622 56.864 114.446 56.52 114.326 56.128C114.206 55.736 114.146 55.32 114.146 54.88C114.146 54.44 114.202 54.024 114.314 53.632C114.434 53.24 114.61 52.9 114.842 52.612C115.082 52.316 115.378 52.084 115.73 51.916C116.09 51.74 116.506 51.652 116.978 51.652C117.138 51.652 117.31 51.668 117.494 51.7C117.678 51.732 117.862 51.788 118.046 51.868C118.23 51.94 118.402 52.04 118.562 52.168C118.73 52.288 118.87 52.44 118.982 52.624H119.006V49.432H120.026V58ZM127.131 58.828C127.011 59.132 126.891 59.388 126.771 59.596C126.659 59.804 126.531 59.972 126.387 60.1C126.251 60.236 126.095 60.332 125.919 60.388C125.751 60.452 125.555 60.484 125.331 60.484C125.211 60.484 125.091 60.476 124.971 60.46C124.851 60.444 124.735 60.416 124.623 60.376V59.44C124.711 59.48 124.811 59.512 124.923 59.536C125.043 59.568 125.143 59.584 125.223 59.584C125.431 59.584 125.603 59.532 125.739 59.428C125.883 59.332 125.991 59.192 126.063 59.008L126.483 57.964L124.023 51.796H125.175L126.987 56.872H127.011L128.751 51.796H129.831L127.131 58.828ZM131.319 54.904C131.319 55.28 131.367 55.616 131.463 55.912C131.567 56.2 131.707 56.444 131.883 56.644C132.059 56.836 132.263 56.984 132.495 57.088C132.735 57.192 132.987 57.244 133.251 57.244C133.515 57.244 133.763 57.192 133.995 57.088C134.235 56.984 134.443 56.836 134.619 56.644C134.795 56.444 134.931 56.2 135.027 55.912C135.131 55.616 135.183 55.28 135.183 54.904C135.183 54.528 135.131 54.196 135.027 53.908C134.931 53.612 134.795 53.364 134.619 53.164C134.443 52.964 134.235 52.812 133.995 52.708C133.763 52.604 133.515 52.552 133.251 52.552C132.987 52.552 132.735 52.604 132.495 52.708C132.263 52.812 132.059 52.964 131.883 53.164C131.707 53.364 131.567 53.612 131.463 53.908C131.367 54.196 131.319 54.528 131.319 54.904ZM130.239 54.904C130.239 54.448 130.303 54.024 130.431 53.632C130.559 53.232 130.751 52.888 131.007 52.6C131.263 52.304 131.579 52.072 131.955 51.904C132.331 51.736 132.763 51.652 133.251 51.652C133.747 51.652 134.179 51.736 134.547 51.904C134.923 52.072 135.239 52.304 135.495 52.6C135.751 52.888 135.943 53.232 136.071 53.632C136.199 54.024 136.263 54.448 136.263 54.904C136.263 55.36 136.199 55.784 136.071 56.176C135.943 56.568 135.751 56.912 135.495 57.208C135.239 57.496 134.923 57.724 134.547 57.892C134.179 58.052 133.747 58.132 133.251 58.132C132.763 58.132 132.331 58.052 131.955 57.892C131.579 57.724 131.263 57.496 131.007 57.208C130.751 56.912 130.559 56.568 130.431 56.176C130.303 55.784 130.239 55.36 130.239 54.904ZM142.481 58H141.521V57.016H141.497C141.281 57.4 141.005 57.684 140.669 57.868C140.333 58.044 139.937 58.132 139.481 58.132C139.073 58.132 138.733 58.08 138.461 57.976C138.189 57.864 137.969 57.708 137.801 57.508C137.633 57.308 137.513 57.072 137.441 56.8C137.377 56.52 137.345 56.212 137.345 55.876V51.796H138.365V55.996C138.365 56.38 138.477 56.684 138.701 56.908C138.925 57.132 139.233 57.244 139.625 57.244C139.937 57.244 140.205 57.196 140.429 57.1C140.661 57.004 140.853 56.868 141.005 56.692C141.157 56.516 141.269 56.312 141.341 56.08C141.421 55.84 141.461 55.58 141.461 55.3V51.796H142.481V58ZM143.857 51.796H144.817V53.104H144.841C145.089 52.6 145.393 52.228 145.753 51.988C146.113 51.748 146.569 51.636 147.121 51.652V52.732C146.713 52.732 146.365 52.788 146.077 52.9C145.789 53.012 145.557 53.176 145.381 53.392C145.205 53.608 145.077 53.872 144.997 54.184C144.917 54.488 144.877 54.84 144.877 55.24V58H143.857V51.796ZM157.181 52.012C157.053 51.404 156.769 50.948 156.329 50.644C155.897 50.34 155.381 50.188 154.781 50.188C154.269 50.188 153.829 50.284 153.461 50.476C153.101 50.668 152.801 50.928 152.561 51.256C152.329 51.576 152.157 51.944 152.045 52.36C151.933 52.776 151.877 53.208 151.877 53.656C151.877 54.144 151.933 54.608 152.045 55.048C152.157 55.48 152.329 55.86 152.561 56.188C152.801 56.508 153.105 56.764 153.473 56.956C153.841 57.148 154.281 57.244 154.793 57.244C155.169 57.244 155.501 57.184 155.789 57.064C156.085 56.936 156.337 56.764 156.545 56.548C156.761 56.324 156.929 56.06 157.049 55.756C157.169 55.452 157.241 55.124 157.265 54.772H158.405C158.293 55.852 157.921 56.692 157.289 57.292C156.657 57.892 155.793 58.192 154.697 58.192C154.033 58.192 153.453 58.08 152.957 57.856C152.461 57.624 152.049 57.308 151.721 56.908C151.393 56.508 151.145 56.036 150.977 55.492C150.817 54.948 150.737 54.364 150.737 53.74C150.737 53.116 150.825 52.532 151.001 51.988C151.177 51.436 151.433 50.956 151.769 50.548C152.113 50.14 152.537 49.82 153.041 49.588C153.553 49.348 154.137 49.228 154.793 49.228C155.241 49.228 155.665 49.288 156.065 49.408C156.465 49.528 156.821 49.704 157.133 49.936C157.445 50.168 157.705 50.46 157.913 50.812C158.121 51.156 158.257 51.556 158.321 52.012H157.181ZM159.529 49.432H160.549V52.708H160.573C160.653 52.516 160.765 52.356 160.909 52.228C161.053 52.092 161.213 51.984 161.389 51.904C161.573 51.816 161.761 51.752 161.953 51.712C162.153 51.672 162.345 51.652 162.529 51.652C162.937 51.652 163.277 51.708 163.549 51.82C163.821 51.932 164.041 52.088 164.209 52.288C164.377 52.488 164.493 52.728 164.557 53.008C164.629 53.28 164.665 53.584 164.665 53.92V58H163.645V53.8C163.645 53.416 163.533 53.112 163.309 52.888C163.085 52.664 162.777 52.552 162.385 52.552C162.073 52.552 161.801 52.6 161.569 52.696C161.345 52.792 161.157 52.928 161.005 53.104C160.853 53.28 160.737 53.488 160.657 53.728C160.585 53.96 160.549 54.216 160.549 54.496V58H159.529V49.432ZM170.385 54.304C170.369 54.064 170.313 53.836 170.217 53.62C170.129 53.404 170.005 53.22 169.845 53.068C169.693 52.908 169.509 52.784 169.293 52.696C169.085 52.6 168.853 52.552 168.597 52.552C168.333 52.552 168.093 52.6 167.877 52.696C167.669 52.784 167.489 52.908 167.337 53.068C167.185 53.228 167.065 53.416 166.977 53.632C166.889 53.84 166.837 54.064 166.821 54.304H170.385ZM171.369 56.032C171.233 56.728 170.933 57.252 170.469 57.604C170.005 57.956 169.421 58.132 168.717 58.132C168.221 58.132 167.789 58.052 167.421 57.892C167.061 57.732 166.757 57.508 166.509 57.22C166.261 56.932 166.073 56.588 165.945 56.188C165.825 55.788 165.757 55.352 165.741 54.88C165.741 54.408 165.813 53.976 165.957 53.584C166.101 53.192 166.301 52.852 166.557 52.564C166.821 52.276 167.129 52.052 167.481 51.892C167.841 51.732 168.233 51.652 168.657 51.652C169.209 51.652 169.665 51.768 170.025 52C170.393 52.224 170.685 52.512 170.901 52.864C171.125 53.216 171.277 53.6 171.357 54.016C171.445 54.432 171.481 54.828 171.465 55.204H166.821C166.813 55.476 166.845 55.736 166.917 55.984C166.989 56.224 167.105 56.44 167.265 56.632C167.425 56.816 167.629 56.964 167.877 57.076C168.125 57.188 168.417 57.244 168.753 57.244C169.185 57.244 169.537 57.144 169.809 56.944C170.089 56.744 170.273 56.44 170.361 56.032H171.369ZM176.615 53.788C176.535 53.396 176.367 53.092 176.111 52.876C175.855 52.66 175.511 52.552 175.079 52.552C174.711 52.552 174.403 52.62 174.155 52.756C173.907 52.892 173.707 53.072 173.555 53.296C173.411 53.52 173.307 53.78 173.243 54.076C173.179 54.364 173.147 54.664 173.147 54.976C173.147 55.264 173.179 55.544 173.243 55.816C173.315 56.088 173.423 56.332 173.567 56.548C173.711 56.756 173.899 56.924 174.131 57.052C174.363 57.18 174.639 57.244 174.959 57.244C175.463 57.244 175.855 57.112 176.135 56.848C176.423 56.584 176.599 56.212 176.663 55.732H177.707C177.595 56.5 177.307 57.092 176.843 57.508C176.387 57.924 175.763 58.132 174.971 58.132C174.499 58.132 174.079 58.056 173.711 57.904C173.351 57.752 173.047 57.536 172.799 57.256C172.559 56.976 172.375 56.644 172.247 56.26C172.127 55.868 172.067 55.44 172.067 54.976C172.067 54.512 172.127 54.08 172.247 53.68C172.367 53.272 172.547 52.92 172.787 52.624C173.035 52.32 173.343 52.084 173.711 51.916C174.079 51.74 174.507 51.652 174.995 51.652C175.347 51.652 175.675 51.696 175.979 51.784C176.291 51.864 176.563 51.992 176.795 52.168C177.035 52.344 177.231 52.568 177.383 52.84C177.535 53.104 177.631 53.42 177.671 53.788H176.615ZM178.788 49.432H179.808V54.508L182.64 51.796H184.008L181.548 54.052L184.188 58H182.892L180.768 54.76L179.808 55.648V58H178.788V49.432ZM185.575 54.904C185.575 55.28 185.623 55.616 185.719 55.912C185.823 56.2 185.963 56.444 186.139 56.644C186.315 56.836 186.519 56.984 186.751 57.088C186.991 57.192 187.243 57.244 187.507 57.244C187.771 57.244 188.019 57.192 188.251 57.088C188.491 56.984 188.699 56.836 188.875 56.644C189.051 56.444 189.187 56.2 189.283 55.912C189.387 55.616 189.439 55.28 189.439 54.904C189.439 54.528 189.387 54.196 189.283 53.908C189.187 53.612 189.051 53.364 188.875 53.164C188.699 52.964 188.491 52.812 188.251 52.708C188.019 52.604 187.771 52.552 187.507 52.552C187.243 52.552 186.991 52.604 186.751 52.708C186.519 52.812 186.315 52.964 186.139 53.164C185.963 53.364 185.823 53.612 185.719 53.908C185.623 54.196 185.575 54.528 185.575 54.904ZM184.495 54.904C184.495 54.448 184.559 54.024 184.687 53.632C184.815 53.232 185.007 52.888 185.263 52.6C185.519 52.304 185.835 52.072 186.211 51.904C186.587 51.736 187.019 51.652 187.507 51.652C188.003 51.652 188.435 51.736 188.803 51.904C189.179 52.072 189.495 52.304 189.751 52.6C190.007 52.888 190.199 53.232 190.327 53.632C190.455 54.024 190.519 54.448 190.519 54.904C190.519 55.36 190.455 55.784 190.327 56.176C190.199 56.568 190.007 56.912 189.751 57.208C189.495 57.496 189.179 57.724 188.803 57.892C188.435 58.052 188.003 58.132 187.507 58.132C187.019 58.132 186.587 58.052 186.211 57.892C185.835 57.724 185.519 57.496 185.263 57.208C185.007 56.912 184.815 56.568 184.687 56.176C184.559 55.784 184.495 55.36 184.495 54.904ZM196.737 58H195.777V57.016H195.753C195.537 57.4 195.261 57.684 194.925 57.868C194.589 58.044 194.193 58.132 193.737 58.132C193.329 58.132 192.989 58.08 192.717 57.976C192.445 57.864 192.225 57.708 192.057 57.508C191.889 57.308 191.769 57.072 191.697 56.8C191.633 56.52 191.601 56.212 191.601 55.876V51.796H192.621V55.996C192.621 56.38 192.733 56.684 192.957 56.908C193.181 57.132 193.489 57.244 193.881 57.244C194.193 57.244 194.461 57.196 194.685 57.1C194.917 57.004 195.109 56.868 195.261 56.692C195.413 56.516 195.525 56.312 195.597 56.08C195.677 55.84 195.717 55.58 195.717 55.3V51.796H196.737V58ZM199.565 51.796H200.801V52.696H199.565V56.548C199.565 56.668 199.573 56.764 199.589 56.836C199.613 56.908 199.653 56.964 199.709 57.004C199.765 57.044 199.841 57.072 199.937 57.088C200.041 57.096 200.173 57.1 200.333 57.1H200.801V58H200.021C199.757 58 199.529 57.984 199.337 57.952C199.153 57.912 199.001 57.844 198.881 57.748C198.769 57.652 198.685 57.516 198.629 57.34C198.573 57.164 198.545 56.932 198.545 56.644V52.696H197.489V51.796H198.545V49.936H199.565V51.796ZM210.17 58H209.21V57.016H209.186C208.97 57.4 208.694 57.684 208.358 57.868C208.022 58.044 207.626 58.132 207.17 58.132C206.762 58.132 206.422 58.08 206.15 57.976C205.878 57.864 205.658 57.708 205.49 57.508C205.322 57.308 205.202 57.072 205.13 56.8C205.066 56.52 205.034 56.212 205.034 55.876V51.796H206.054V55.996C206.054 56.38 206.166 56.684 206.39 56.908C206.614 57.132 206.922 57.244 207.314 57.244C207.626 57.244 207.894 57.196 208.118 57.1C208.35 57.004 208.542 56.868 208.694 56.692C208.846 56.516 208.958 56.312 209.03 56.08C209.11 55.84 209.15 55.58 209.15 55.3V51.796H210.17V58ZM211.582 51.796H212.542V52.78H212.566C212.99 52.028 213.662 51.652 214.582 51.652C214.99 51.652 215.33 51.708 215.602 51.82C215.874 51.932 216.094 52.088 216.262 52.288C216.43 52.488 216.546 52.728 216.61 53.008C216.682 53.28 216.718 53.584 216.718 53.92V58H215.698V53.8C215.698 53.416 215.586 53.112 215.362 52.888C215.138 52.664 214.83 52.552 214.438 52.552C214.126 52.552 213.854 52.6 213.622 52.696C213.398 52.792 213.21 52.928 213.058 53.104C212.906 53.28 212.79 53.488 212.71 53.728C212.638 53.96 212.602 54.216 212.602 54.496V58H211.582V51.796ZM219.546 51.796H220.782V52.696H219.546V56.548C219.546 56.668 219.554 56.764 219.57 56.836C219.594 56.908 219.634 56.964 219.69 57.004C219.746 57.044 219.822 57.072 219.918 57.088C220.022 57.096 220.154 57.1 220.314 57.1H220.782V58H220.002C219.738 58 219.51 57.984 219.318 57.952C219.134 57.912 218.982 57.844 218.862 57.748C218.75 57.652 218.666 57.516 218.61 57.34C218.554 57.164 218.526 56.932 218.526 56.644V52.696H217.47V51.796H218.526V49.936H219.546V51.796ZM222.875 50.68H221.855V49.432H222.875V50.68ZM221.855 51.796H222.875V58H221.855V51.796ZM224.396 49.432H225.416V58H224.396V49.432ZM231.835 50.836H230.131V49.432H231.835V50.836ZM229.111 58.72C229.199 58.752 229.319 58.768 229.471 58.768C229.647 58.768 229.799 58.732 229.927 58.66C230.063 58.596 230.131 58.448 230.131 58.216V51.796H231.835V58.3C231.835 58.62 231.799 58.896 231.727 59.128C231.663 59.36 231.547 59.552 231.379 59.704C231.219 59.864 230.999 59.98 230.719 60.052C230.439 60.132 230.083 60.172 229.651 60.172C229.451 60.172 229.271 60.156 229.111 60.124V58.72ZM233.123 53.704C233.147 53.304 233.247 52.972 233.423 52.708C233.599 52.444 233.823 52.232 234.095 52.072C234.367 51.912 234.671 51.8 235.007 51.736C235.351 51.664 235.695 51.628 236.039 51.628C236.351 51.628 236.667 51.652 236.987 51.7C237.307 51.74 237.599 51.824 237.863 51.952C238.127 52.08 238.343 52.26 238.511 52.492C238.679 52.716 238.763 53.016 238.763 53.392V56.62C238.763 56.9 238.779 57.168 238.811 57.424C238.843 57.68 238.899 57.872 238.979 58H237.251C237.219 57.904 237.191 57.808 237.167 57.712C237.151 57.608 237.139 57.504 237.131 57.4C236.859 57.68 236.539 57.876 236.171 57.988C235.803 58.1 235.427 58.156 235.043 58.156C234.747 58.156 234.471 58.12 234.215 58.048C233.959 57.976 233.735 57.864 233.543 57.712C233.351 57.56 233.199 57.368 233.087 57.136C232.983 56.904 232.931 56.628 232.931 56.308C232.931 55.956 232.991 55.668 233.111 55.444C233.239 55.212 233.399 55.028 233.591 54.892C233.791 54.756 234.015 54.656 234.263 54.592C234.519 54.52 234.775 54.464 235.031 54.424C235.287 54.384 235.539 54.352 235.787 54.328C236.035 54.304 236.255 54.268 236.447 54.22C236.639 54.172 236.791 54.104 236.903 54.016C237.015 53.92 237.067 53.784 237.059 53.608C237.059 53.424 237.027 53.28 236.963 53.176C236.907 53.064 236.827 52.98 236.723 52.924C236.627 52.86 236.511 52.82 236.375 52.804C236.247 52.78 236.107 52.768 235.955 52.768C235.619 52.768 235.355 52.84 235.163 52.984C234.971 53.128 234.859 53.368 234.827 53.704H233.123ZM237.059 54.964C236.987 55.028 236.895 55.08 236.783 55.12C236.679 55.152 236.563 55.18 236.435 55.204C236.315 55.228 236.187 55.248 236.051 55.264C235.915 55.28 235.779 55.3 235.643 55.324C235.515 55.348 235.387 55.38 235.259 55.42C235.139 55.46 235.031 55.516 234.935 55.588C234.847 55.652 234.775 55.736 234.719 55.84C234.663 55.944 234.635 56.076 234.635 56.236C234.635 56.388 234.663 56.516 234.719 56.62C234.775 56.724 234.851 56.808 234.947 56.872C235.043 56.928 235.155 56.968 235.283 56.992C235.411 57.016 235.543 57.028 235.679 57.028C236.015 57.028 236.275 56.972 236.459 56.86C236.643 56.748 236.779 56.616 236.867 56.464C236.955 56.304 237.007 56.144 237.023 55.984C237.047 55.824 237.059 55.696 237.059 55.6V54.964ZM239.966 51.796H241.586V52.66H241.622C241.838 52.3 242.118 52.04 242.462 51.88C242.806 51.712 243.158 51.628 243.518 51.628C243.974 51.628 244.346 51.692 244.634 51.82C244.93 51.94 245.162 52.112 245.33 52.336C245.498 52.552 245.614 52.82 245.678 53.14C245.75 53.452 245.786 53.8 245.786 54.184V58H244.082V54.496C244.082 53.984 244.002 53.604 243.842 53.356C243.682 53.1 243.398 52.972 242.99 52.972C242.526 52.972 242.19 53.112 241.982 53.392C241.774 53.664 241.67 54.116 241.67 54.748V58H239.966V51.796ZM251.487 53.764C251.487 54.004 251.495 54.296 251.511 54.64C251.527 54.976 251.575 55.304 251.655 55.624C251.743 55.936 251.879 56.204 252.063 56.428C252.247 56.652 252.511 56.764 252.855 56.764C253.207 56.764 253.475 56.652 253.659 56.428C253.851 56.204 253.987 55.936 254.067 55.624C254.155 55.304 254.207 54.976 254.223 54.64C254.239 54.296 254.247 54.004 254.247 53.764C254.247 53.62 254.243 53.448 254.235 53.248C254.235 53.04 254.219 52.828 254.187 52.612C254.163 52.396 254.123 52.184 254.067 51.976C254.019 51.76 253.943 51.568 253.839 51.4C253.735 51.232 253.603 51.096 253.443 50.992C253.283 50.888 253.087 50.836 252.855 50.836C252.623 50.836 252.427 50.888 252.267 50.992C252.115 51.096 251.987 51.232 251.883 51.4C251.787 51.568 251.711 51.76 251.655 51.976C251.599 52.184 251.559 52.396 251.535 52.612C251.511 52.828 251.495 53.04 251.487 53.248C251.487 53.448 251.487 53.62 251.487 53.764ZM249.783 53.764C249.783 52.948 249.863 52.264 250.023 51.712C250.191 51.152 250.415 50.704 250.695 50.368C250.975 50.032 251.299 49.792 251.667 49.648C252.043 49.504 252.439 49.432 252.855 49.432C253.279 49.432 253.675 49.504 254.043 49.648C254.419 49.792 254.747 50.032 255.027 50.368C255.315 50.704 255.539 51.152 255.699 51.712C255.867 52.264 255.951 52.948 255.951 53.764C255.951 54.604 255.867 55.308 255.699 55.876C255.539 56.436 255.315 56.884 255.027 57.22C254.747 57.556 254.419 57.796 254.043 57.94C253.675 58.084 253.279 58.156 252.855 58.156C252.439 58.156 252.043 58.084 251.667 57.94C251.299 57.796 250.975 57.556 250.695 57.22C250.415 56.884 250.191 56.436 250.023 55.876C249.863 55.308 249.783 54.604 249.783 53.764ZM260.783 58H259.079V52.552H256.967V51.268C257.263 51.276 257.547 51.256 257.819 51.208C258.099 51.152 258.347 51.06 258.563 50.932C258.787 50.796 258.975 50.62 259.127 50.404C259.279 50.188 259.379 49.92 259.427 49.6H260.783V58ZM263.359 56.152H265.243V58C265.243 58.272 265.191 58.52 265.087 58.744C264.991 58.976 264.859 59.176 264.691 59.344C264.523 59.512 264.323 59.648 264.091 59.752C263.867 59.864 263.627 59.94 263.371 59.98V59.116C263.491 59.092 263.603 59.044 263.707 58.972C263.819 58.9 263.915 58.812 263.995 58.708C264.075 58.612 264.135 58.5 264.175 58.372C264.215 58.252 264.231 58.128 264.223 58H263.359V56.152ZM273.771 58H272.067V52.552H269.955V51.268C270.251 51.276 270.535 51.256 270.807 51.208C271.087 51.152 271.335 51.06 271.551 50.932C271.775 50.796 271.963 50.62 272.115 50.404C272.267 50.188 272.367 49.92 272.415 49.6H273.771V58ZM280.319 58H278.615V52.552H276.503V51.268C276.799 51.276 277.083 51.256 277.355 51.208C277.635 51.152 277.883 51.06 278.099 50.932C278.323 50.796 278.511 50.62 278.663 50.404C278.815 50.188 278.915 49.92 278.963 49.6H280.319V58ZM284.779 53.752H282.895V51.904H284.779V53.752ZM282.895 56.152H284.779V58H282.895V56.152ZM287.339 53.764C287.339 54.004 287.347 54.296 287.363 54.64C287.379 54.976 287.427 55.304 287.507 55.624C287.595 55.936 287.731 56.204 287.915 56.428C288.099 56.652 288.363 56.764 288.707 56.764C289.059 56.764 289.327 56.652 289.511 56.428C289.703 56.204 289.839 55.936 289.919 55.624C290.007 55.304 290.059 54.976 290.075 54.64C290.091 54.296 290.099 54.004 290.099 53.764C290.099 53.62 290.095 53.448 290.087 53.248C290.087 53.04 290.071 52.828 290.039 52.612C290.015 52.396 289.975 52.184 289.919 51.976C289.871 51.76 289.795 51.568 289.691 51.4C289.587 51.232 289.455 51.096 289.295 50.992C289.135 50.888 288.939 50.836 288.707 50.836C288.475 50.836 288.279 50.888 288.119 50.992C287.967 51.096 287.839 51.232 287.735 51.4C287.639 51.568 287.563 51.76 287.507 51.976C287.451 52.184 287.411 52.396 287.387 52.612C287.363 52.828 287.347 53.04 287.339 53.248C287.339 53.448 287.339 53.62 287.339 53.764ZM285.635 53.764C285.635 52.948 285.715 52.264 285.875 51.712C286.043 51.152 286.267 50.704 286.547 50.368C286.827 50.032 287.151 49.792 287.519 49.648C287.895 49.504 288.291 49.432 288.707 49.432C289.131 49.432 289.527 49.504 289.895 49.648C290.271 49.792 290.599 50.032 290.879 50.368C291.167 50.704 291.391 51.152 291.551 51.712C291.719 52.264 291.803 52.948 291.803 53.764C291.803 54.604 291.719 55.308 291.551 55.876C291.391 56.436 291.167 56.884 290.879 57.22C290.599 57.556 290.271 57.796 289.895 57.94C289.527 58.084 289.131 58.156 288.707 58.156C288.291 58.156 287.895 58.084 287.519 57.94C287.151 57.796 286.827 57.556 286.547 57.22C286.267 56.884 286.043 56.436 285.875 55.876C285.715 55.308 285.635 54.604 285.635 53.764ZM293.886 53.764C293.886 54.004 293.894 54.296 293.91 54.64C293.926 54.976 293.974 55.304 294.054 55.624C294.142 55.936 294.278 56.204 294.462 56.428C294.646 56.652 294.91 56.764 295.254 56.764C295.606 56.764 295.874 56.652 296.058 56.428C296.25 56.204 296.386 55.936 296.466 55.624C296.554 55.304 296.606 54.976 296.622 54.64C296.638 54.296 296.646 54.004 296.646 53.764C296.646 53.62 296.642 53.448 296.634 53.248C296.634 53.04 296.618 52.828 296.586 52.612C296.562 52.396 296.522 52.184 296.466 51.976C296.418 51.76 296.342 51.568 296.238 51.4C296.134 51.232 296.002 51.096 295.842 50.992C295.682 50.888 295.486 50.836 295.254 50.836C295.022 50.836 294.826 50.888 294.666 50.992C294.514 51.096 294.386 51.232 294.282 51.4C294.186 51.568 294.11 51.76 294.054 51.976C293.998 52.184 293.958 52.396 293.934 52.612C293.91 52.828 293.894 53.04 293.886 53.248C293.886 53.448 293.886 53.62 293.886 53.764ZM292.182 53.764C292.182 52.948 292.262 52.264 292.422 51.712C292.59 51.152 292.814 50.704 293.094 50.368C293.374 50.032 293.698 49.792 294.066 49.648C294.442 49.504 294.838 49.432 295.254 49.432C295.678 49.432 296.074 49.504 296.442 49.648C296.818 49.792 297.146 50.032 297.426 50.368C297.714 50.704 297.938 51.152 298.098 51.712C298.266 52.264 298.35 52.948 298.35 53.764C298.35 54.604 298.266 55.308 298.098 55.876C297.938 56.436 297.714 56.884 297.426 57.22C297.146 57.556 296.818 57.796 296.442 57.94C296.074 58.084 295.678 58.156 295.254 58.156C294.838 58.156 294.442 58.084 294.066 57.94C293.698 57.796 293.374 57.556 293.094 57.22C292.814 56.884 292.59 56.436 292.422 55.876C292.262 55.308 292.182 54.604 292.182 53.764ZM304.686 54.688H306.906L305.826 51.544H305.802L304.686 54.688ZM304.866 49.432H306.798L310.002 58H308.046L307.398 56.092H304.194L303.522 58H301.626L304.866 49.432ZM310.621 49.432H313.273L315.277 55.324H315.301L317.197 49.432H319.849V58H318.085V51.928H318.061L315.961 58H314.509L312.409 51.988H312.385V58H310.621V49.432ZM321.28 56.152H323.164V58H321.28V56.152ZM327.984 49.432H329.124V58H327.984V49.432ZM331.173 52.696H330.129V51.796H331.173V50.872C331.173 50.368 331.317 49.988 331.605 49.732C331.901 49.468 332.329 49.336 332.889 49.336C332.985 49.336 333.093 49.344 333.213 49.36C333.341 49.376 333.453 49.4 333.549 49.432V50.32C333.461 50.288 333.365 50.268 333.261 50.26C333.157 50.244 333.061 50.236 332.973 50.236C332.725 50.236 332.533 50.284 332.397 50.38C332.261 50.476 332.193 50.66 332.193 50.932V51.796H333.393V52.696H332.193V58H331.173V52.696ZM339.84 58.828C339.72 59.132 339.6 59.388 339.48 59.596C339.368 59.804 339.24 59.972 339.096 60.1C338.96 60.236 338.804 60.332 338.628 60.388C338.46 60.452 338.264 60.484 338.04 60.484C337.92 60.484 337.8 60.476 337.68 60.46C337.56 60.444 337.444 60.416 337.332 60.376V59.44C337.42 59.48 337.52 59.512 337.632 59.536C337.752 59.568 337.852 59.584 337.932 59.584C338.14 59.584 338.312 59.532 338.448 59.428C338.592 59.332 338.7 59.192 338.772 59.008L339.192 57.964L336.732 51.796H337.884L339.696 56.872H339.72L341.46 51.796H342.54L339.84 58.828ZM344.028 54.904C344.028 55.28 344.076 55.616 344.172 55.912C344.276 56.2 344.416 56.444 344.592 56.644C344.768 56.836 344.972 56.984 345.204 57.088C345.444 57.192 345.696 57.244 345.96 57.244C346.224 57.244 346.472 57.192 346.704 57.088C346.944 56.984 347.152 56.836 347.328 56.644C347.504 56.444 347.64 56.2 347.736 55.912C347.84 55.616 347.892 55.28 347.892 54.904C347.892 54.528 347.84 54.196 347.736 53.908C347.64 53.612 347.504 53.364 347.328 53.164C347.152 52.964 346.944 52.812 346.704 52.708C346.472 52.604 346.224 52.552 345.96 52.552C345.696 52.552 345.444 52.604 345.204 52.708C344.972 52.812 344.768 52.964 344.592 53.164C344.416 53.364 344.276 53.612 344.172 53.908C344.076 54.196 344.028 54.528 344.028 54.904ZM342.948 54.904C342.948 54.448 343.012 54.024 343.14 53.632C343.268 53.232 343.46 52.888 343.716 52.6C343.972 52.304 344.288 52.072 344.664 51.904C345.04 51.736 345.472 51.652 345.96 51.652C346.456 51.652 346.888 51.736 347.256 51.904C347.632 52.072 347.948 52.304 348.204 52.6C348.46 52.888 348.652 53.232 348.78 53.632C348.908 54.024 348.972 54.448 348.972 54.904C348.972 55.36 348.908 55.784 348.78 56.176C348.652 56.568 348.46 56.912 348.204 57.208C347.948 57.496 347.632 57.724 347.256 57.892C346.888 58.052 346.456 58.132 345.96 58.132C345.472 58.132 345.04 58.052 344.664 57.892C344.288 57.724 343.972 57.496 343.716 57.208C343.46 56.912 343.268 56.568 343.14 56.176C343.012 55.784 342.948 55.36 342.948 54.904ZM355.19 58H354.23V57.016H354.206C353.99 57.4 353.714 57.684 353.378 57.868C353.042 58.044 352.646 58.132 352.19 58.132C351.782 58.132 351.442 58.08 351.17 57.976C350.898 57.864 350.678 57.708 350.51 57.508C350.342 57.308 350.222 57.072 350.15 56.8C350.086 56.52 350.054 56.212 350.054 55.876V51.796H351.074V55.996C351.074 56.38 351.186 56.684 351.41 56.908C351.634 57.132 351.942 57.244 352.334 57.244C352.646 57.244 352.914 57.196 353.138 57.1C353.37 57.004 353.562 56.868 353.714 56.692C353.866 56.516 353.978 56.312 354.05 56.08C354.13 55.84 354.17 55.58 354.17 55.3V51.796H355.19V58ZM356.566 51.796H357.526V53.104H357.55C357.798 52.6 358.102 52.228 358.462 51.988C358.822 51.748 359.278 51.636 359.83 51.652V52.732C359.422 52.732 359.074 52.788 358.786 52.9C358.498 53.012 358.266 53.176 358.09 53.392C357.914 53.608 357.786 53.872 357.706 54.184C357.626 54.488 357.586 54.84 357.586 55.24V58H356.566V51.796ZM363.662 51.796H364.622V53.104H364.646C364.894 52.6 365.198 52.228 365.558 51.988C365.918 51.748 366.374 51.636 366.926 51.652V52.732C366.518 52.732 366.17 52.788 365.882 52.9C365.594 53.012 365.362 53.176 365.186 53.392C365.01 53.608 364.882 53.872 364.802 54.184C364.722 54.488 364.682 54.84 364.682 55.24V58H363.662V51.796ZM371.671 54.304C371.655 54.064 371.599 53.836 371.503 53.62C371.415 53.404 371.291 53.22 371.131 53.068C370.979 52.908 370.795 52.784 370.579 52.696C370.371 52.6 370.139 52.552 369.883 52.552C369.619 52.552 369.379 52.6 369.163 52.696C368.955 52.784 368.775 52.908 368.623 53.068C368.471 53.228 368.351 53.416 368.263 53.632C368.175 53.84 368.123 54.064 368.107 54.304H371.671ZM372.655 56.032C372.519 56.728 372.219 57.252 371.755 57.604C371.291 57.956 370.707 58.132 370.003 58.132C369.507 58.132 369.075 58.052 368.707 57.892C368.347 57.732 368.043 57.508 367.795 57.22C367.547 56.932 367.359 56.588 367.231 56.188C367.111 55.788 367.043 55.352 367.027 54.88C367.027 54.408 367.099 53.976 367.243 53.584C367.387 53.192 367.587 52.852 367.843 52.564C368.107 52.276 368.415 52.052 368.767 51.892C369.127 51.732 369.519 51.652 369.943 51.652C370.495 51.652 370.951 51.768 371.311 52C371.679 52.224 371.971 52.512 372.187 52.864C372.411 53.216 372.563 53.6 372.643 54.016C372.731 54.432 372.767 54.828 372.751 55.204H368.107C368.099 55.476 368.131 55.736 368.203 55.984C368.275 56.224 368.391 56.44 368.551 56.632C368.711 56.816 368.915 56.964 369.163 57.076C369.411 57.188 369.703 57.244 370.039 57.244C370.471 57.244 370.823 57.144 371.095 56.944C371.375 56.744 371.559 56.44 371.647 56.032H372.655ZM374.313 56.044C374.321 56.268 374.373 56.46 374.469 56.62C374.565 56.772 374.689 56.896 374.841 56.992C375.001 57.08 375.177 57.144 375.369 57.184C375.569 57.224 375.773 57.244 375.981 57.244C376.141 57.244 376.309 57.232 376.485 57.208C376.661 57.184 376.821 57.14 376.965 57.076C377.117 57.012 377.241 56.92 377.337 56.8C377.433 56.672 377.481 56.512 377.481 56.32C377.481 56.056 377.381 55.856 377.181 55.72C376.981 55.584 376.729 55.476 376.425 55.396C376.129 55.308 375.805 55.232 375.453 55.168C375.101 55.096 374.773 55 374.469 54.88C374.173 54.752 373.925 54.576 373.725 54.352C373.525 54.128 373.425 53.816 373.425 53.416C373.425 53.104 373.493 52.836 373.629 52.612C373.773 52.388 373.953 52.208 374.169 52.072C374.393 51.928 374.641 51.824 374.913 51.76C375.193 51.688 375.469 51.652 375.741 51.652C376.093 51.652 376.417 51.684 376.713 51.748C377.009 51.804 377.269 51.908 377.493 52.06C377.725 52.204 377.909 52.404 378.045 52.66C378.181 52.908 378.261 53.22 378.285 53.596H377.265C377.249 53.396 377.197 53.232 377.109 53.104C377.021 52.968 376.909 52.86 376.773 52.78C376.637 52.7 376.485 52.644 376.317 52.612C376.157 52.572 375.993 52.552 375.825 52.552C375.673 52.552 375.517 52.564 375.357 52.588C375.205 52.612 375.065 52.656 374.937 52.72C374.809 52.776 374.705 52.856 374.625 52.96C374.545 53.056 374.505 53.184 374.505 53.344C374.505 53.52 374.565 53.668 374.685 53.788C374.813 53.9 374.973 53.996 375.165 54.076C375.357 54.148 375.573 54.212 375.813 54.268C376.053 54.316 376.293 54.368 376.533 54.424C376.789 54.48 377.037 54.548 377.277 54.628C377.525 54.708 377.741 54.816 377.925 54.952C378.117 55.08 378.269 55.244 378.381 55.444C378.501 55.644 378.561 55.892 378.561 56.188C378.561 56.564 378.481 56.876 378.321 57.124C378.169 57.372 377.965 57.572 377.709 57.724C377.461 57.876 377.177 57.98 376.857 58.036C376.545 58.1 376.233 58.132 375.921 58.132C375.577 58.132 375.249 58.096 374.937 58.024C374.625 57.952 374.349 57.836 374.109 57.676C373.869 57.508 373.677 57.292 373.533 57.028C373.389 56.756 373.309 56.428 373.293 56.044H374.313ZM383.877 54.304C383.861 54.064 383.805 53.836 383.709 53.62C383.621 53.404 383.497 53.22 383.337 53.068C383.185 52.908 383.001 52.784 382.785 52.696C382.577 52.6 382.345 52.552 382.089 52.552C381.825 52.552 381.585 52.6 381.369 52.696C381.161 52.784 380.981 52.908 380.829 53.068C380.677 53.228 380.557 53.416 380.469 53.632C380.381 53.84 380.329 54.064 380.313 54.304H383.877ZM384.861 56.032C384.725 56.728 384.425 57.252 383.961 57.604C383.497 57.956 382.913 58.132 382.209 58.132C381.713 58.132 381.281 58.052 380.913 57.892C380.553 57.732 380.249 57.508 380.001 57.22C379.753 56.932 379.565 56.588 379.437 56.188C379.317 55.788 379.249 55.352 379.233 54.88C379.233 54.408 379.305 53.976 379.449 53.584C379.593 53.192 379.793 52.852 380.049 52.564C380.313 52.276 380.621 52.052 380.973 51.892C381.333 51.732 381.725 51.652 382.149 51.652C382.701 51.652 383.157 51.768 383.517 52C383.885 52.224 384.177 52.512 384.393 52.864C384.617 53.216 384.769 53.6 384.849 54.016C384.937 54.432 384.973 54.828 384.957 55.204H380.313C380.305 55.476 380.337 55.736 380.409 55.984C380.481 56.224 380.597 56.44 380.757 56.632C380.917 56.816 381.121 56.964 381.369 57.076C381.617 57.188 381.909 57.244 382.245 57.244C382.677 57.244 383.029 57.144 383.301 56.944C383.581 56.744 383.765 56.44 383.853 56.032H384.861ZM385.858 51.796H386.818V53.104H386.842C387.09 52.6 387.394 52.228 387.754 51.988C388.114 51.748 388.57 51.636 389.122 51.652V52.732C388.714 52.732 388.366 52.788 388.078 52.9C387.79 53.012 387.558 53.176 387.382 53.392C387.206 53.608 387.078 53.872 386.998 54.184C386.918 54.488 386.878 54.84 386.878 55.24V58H385.858V51.796ZM392.566 58H391.474L389.17 51.796H390.31L392.05 56.968H392.074L393.766 51.796H394.834L392.566 58ZM399.958 54.304C399.942 54.064 399.886 53.836 399.79 53.62C399.702 53.404 399.578 53.22 399.418 53.068C399.266 52.908 399.082 52.784 398.866 52.696C398.658 52.6 398.426 52.552 398.17 52.552C397.906 52.552 397.666 52.6 397.45 52.696C397.242 52.784 397.062 52.908 396.91 53.068C396.758 53.228 396.638 53.416 396.55 53.632C396.462 53.84 396.41 54.064 396.394 54.304H399.958ZM400.942 56.032C400.806 56.728 400.506 57.252 400.042 57.604C399.578 57.956 398.994 58.132 398.29 58.132C397.794 58.132 397.362 58.052 396.994 57.892C396.634 57.732 396.33 57.508 396.082 57.22C395.834 56.932 395.646 56.588 395.518 56.188C395.398 55.788 395.33 55.352 395.314 54.88C395.314 54.408 395.386 53.976 395.53 53.584C395.674 53.192 395.874 52.852 396.13 52.564C396.394 52.276 396.702 52.052 397.054 51.892C397.414 51.732 397.806 51.652 398.23 51.652C398.782 51.652 399.238 51.768 399.598 52C399.966 52.224 400.258 52.512 400.474 52.864C400.698 53.216 400.85 53.6 400.93 54.016C401.018 54.432 401.054 54.828 401.038 55.204H396.394C396.386 55.476 396.418 55.736 396.49 55.984C396.562 56.224 396.678 56.44 396.838 56.632C396.998 56.816 397.202 56.964 397.45 57.076C397.698 57.188 397.99 57.244 398.326 57.244C398.758 57.244 399.11 57.144 399.382 56.944C399.662 56.744 399.846 56.44 399.934 56.032H400.942ZM409.407 53.788C409.327 53.396 409.159 53.092 408.903 52.876C408.647 52.66 408.303 52.552 407.871 52.552C407.503 52.552 407.195 52.62 406.947 52.756C406.699 52.892 406.499 53.072 406.347 53.296C406.203 53.52 406.099 53.78 406.035 54.076C405.971 54.364 405.939 54.664 405.939 54.976C405.939 55.264 405.971 55.544 406.035 55.816C406.107 56.088 406.215 56.332 406.359 56.548C406.503 56.756 406.691 56.924 406.923 57.052C407.155 57.18 407.431 57.244 407.751 57.244C408.255 57.244 408.647 57.112 408.927 56.848C409.215 56.584 409.391 56.212 409.455 55.732H410.499C410.387 56.5 410.099 57.092 409.635 57.508C409.179 57.924 408.555 58.132 407.763 58.132C407.291 58.132 406.871 58.056 406.503 57.904C406.143 57.752 405.839 57.536 405.591 57.256C405.351 56.976 405.167 56.644 405.039 56.26C404.919 55.868 404.859 55.44 404.859 54.976C404.859 54.512 404.919 54.08 405.039 53.68C405.159 53.272 405.339 52.92 405.579 52.624C405.827 52.32 406.135 52.084 406.503 51.916C406.871 51.74 407.299 51.652 407.787 51.652C408.139 51.652 408.467 51.696 408.771 51.784C409.083 51.864 409.355 51.992 409.587 52.168C409.827 52.344 410.023 52.568 410.175 52.84C410.327 53.104 410.423 53.42 410.463 53.788H409.407ZM411.521 49.432H412.541V52.708H412.565C412.645 52.516 412.757 52.356 412.901 52.228C413.045 52.092 413.205 51.984 413.381 51.904C413.565 51.816 413.753 51.752 413.945 51.712C414.145 51.672 414.337 51.652 414.521 51.652C414.929 51.652 415.269 51.708 415.541 51.82C415.813 51.932 416.033 52.088 416.201 52.288C416.369 52.488 416.485 52.728 416.549 53.008C416.621 53.28 416.657 53.584 416.657 53.92V58H415.637V53.8C415.637 53.416 415.525 53.112 415.301 52.888C415.077 52.664 414.769 52.552 414.377 52.552C414.065 52.552 413.793 52.6 413.561 52.696C413.337 52.792 413.149 52.928 412.997 53.104C412.845 53.28 412.729 53.488 412.649 53.728C412.577 53.96 412.541 54.216 412.541 54.496V58H411.521V49.432ZM423.564 57.976C423.388 58.08 423.144 58.132 422.832 58.132C422.568 58.132 422.356 58.06 422.196 57.916C422.044 57.764 421.968 57.52 421.968 57.184C421.688 57.52 421.36 57.764 420.984 57.916C420.616 58.06 420.216 58.132 419.784 58.132C419.504 58.132 419.236 58.1 418.98 58.036C418.732 57.972 418.516 57.872 418.332 57.736C418.148 57.6 418 57.424 417.888 57.208C417.784 56.984 417.732 56.716 417.732 56.404C417.732 56.052 417.792 55.764 417.912 55.54C418.032 55.316 418.188 55.136 418.38 55C418.58 54.856 418.804 54.748 419.052 54.676C419.308 54.604 419.568 54.544 419.832 54.496C420.112 54.44 420.376 54.4 420.624 54.376C420.88 54.344 421.104 54.304 421.296 54.256C421.488 54.2 421.64 54.124 421.752 54.028C421.864 53.924 421.92 53.776 421.92 53.584C421.92 53.36 421.876 53.18 421.788 53.044C421.708 52.908 421.6 52.804 421.464 52.732C421.336 52.66 421.188 52.612 421.02 52.588C420.86 52.564 420.7 52.552 420.54 52.552C420.108 52.552 419.748 52.636 419.46 52.804C419.172 52.964 419.016 53.272 418.992 53.728H417.972C417.988 53.344 418.068 53.02 418.212 52.756C418.356 52.492 418.548 52.28 418.788 52.12C419.028 51.952 419.3 51.832 419.604 51.76C419.916 51.688 420.248 51.652 420.6 51.652C420.88 51.652 421.156 51.672 421.428 51.712C421.708 51.752 421.96 51.836 422.184 51.964C422.408 52.084 422.588 52.256 422.724 52.48C422.86 52.704 422.928 52.996 422.928 53.356V56.548C422.928 56.788 422.94 56.964 422.964 57.076C422.996 57.188 423.092 57.244 423.252 57.244C423.34 57.244 423.444 57.224 423.564 57.184V57.976ZM421.908 54.796C421.78 54.892 421.612 54.964 421.404 55.012C421.196 55.052 420.976 55.088 420.744 55.12C420.52 55.144 420.292 55.176 420.06 55.216C419.828 55.248 419.62 55.304 419.436 55.384C419.252 55.464 419.1 55.58 418.98 55.732C418.868 55.876 418.812 56.076 418.812 56.332C418.812 56.5 418.844 56.644 418.908 56.764C418.98 56.876 419.068 56.968 419.172 57.04C419.284 57.112 419.412 57.164 419.556 57.196C419.7 57.228 419.852 57.244 420.012 57.244C420.348 57.244 420.636 57.2 420.876 57.112C421.116 57.016 421.312 56.9 421.464 56.764C421.616 56.62 421.728 56.468 421.8 56.308C421.872 56.14 421.908 55.984 421.908 55.84V54.796ZM424.394 51.796H425.354V52.78H425.378C425.802 52.028 426.474 51.652 427.394 51.652C427.802 51.652 428.142 51.708 428.414 51.82C428.686 51.932 428.906 52.088 429.074 52.288C429.242 52.488 429.358 52.728 429.422 53.008C429.494 53.28 429.53 53.584 429.53 53.92V58H428.51V53.8C428.51 53.416 428.398 53.112 428.174 52.888C427.95 52.664 427.642 52.552 427.25 52.552C426.938 52.552 426.666 52.6 426.434 52.696C426.21 52.792 426.022 52.928 425.87 53.104C425.718 53.28 425.602 53.488 425.522 53.728C425.45 53.96 425.414 54.216 425.414 54.496V58H424.394V51.796ZM436.294 57.472C436.294 58.488 436.062 59.248 435.598 59.752C435.134 60.256 434.406 60.508 433.414 60.508C433.126 60.508 432.83 60.476 432.526 60.412C432.23 60.348 431.958 60.244 431.71 60.1C431.47 59.956 431.27 59.768 431.11 59.536C430.95 59.304 430.862 59.02 430.846 58.684H431.866C431.874 58.868 431.93 59.024 432.034 59.152C432.146 59.28 432.278 59.384 432.43 59.464C432.59 59.544 432.762 59.6 432.946 59.632C433.13 59.672 433.306 59.692 433.474 59.692C433.81 59.692 434.094 59.632 434.326 59.512C434.558 59.4 434.75 59.24 434.902 59.032C435.054 58.832 435.162 58.588 435.226 58.3C435.298 58.012 435.334 57.696 435.334 57.352V56.944H435.31C435.134 57.328 434.866 57.612 434.506 57.796C434.154 57.972 433.778 58.06 433.378 58.06C432.914 58.06 432.51 57.976 432.166 57.808C431.822 57.64 431.534 57.416 431.302 57.136C431.07 56.848 430.894 56.516 430.774 56.14C430.662 55.756 430.606 55.352 430.606 54.928C430.606 54.56 430.654 54.184 430.75 53.8C430.846 53.408 431.006 53.056 431.23 52.744C431.454 52.424 431.75 52.164 432.118 51.964C432.486 51.756 432.938 51.652 433.474 51.652C433.866 51.652 434.226 51.74 434.554 51.916C434.882 52.084 435.138 52.34 435.322 52.684H435.334V51.796H436.294V57.472ZM433.438 57.172C433.774 57.172 434.058 57.104 434.29 56.968C434.53 56.824 434.722 56.64 434.866 56.416C435.01 56.184 435.114 55.924 435.178 55.636C435.25 55.348 435.286 55.06 435.286 54.772C435.286 54.5 435.254 54.232 435.19 53.968C435.126 53.704 435.022 53.468 434.878 53.26C434.742 53.044 434.562 52.872 434.338 52.744C434.114 52.616 433.842 52.552 433.522 52.552C433.194 52.552 432.914 52.616 432.682 52.744C432.45 52.864 432.258 53.028 432.106 53.236C431.962 53.444 431.854 53.684 431.782 53.956C431.718 54.228 431.686 54.512 431.686 54.808C431.686 55.088 431.714 55.368 431.77 55.648C431.826 55.928 431.922 56.184 432.058 56.416C432.194 56.64 432.374 56.824 432.598 56.968C432.822 57.104 433.102 57.172 433.438 57.172ZM442.02 54.304C442.004 54.064 441.948 53.836 441.852 53.62C441.764 53.404 441.64 53.22 441.48 53.068C441.328 52.908 441.144 52.784 440.928 52.696C440.72 52.6 440.488 52.552 440.232 52.552C439.968 52.552 439.728 52.6 439.512 52.696C439.304 52.784 439.124 52.908 438.972 53.068C438.82 53.228 438.7 53.416 438.612 53.632C438.524 53.84 438.472 54.064 438.456 54.304H442.02ZM443.004 56.032C442.868 56.728 442.568 57.252 442.104 57.604C441.64 57.956 441.056 58.132 440.352 58.132C439.856 58.132 439.424 58.052 439.056 57.892C438.696 57.732 438.392 57.508 438.144 57.22C437.896 56.932 437.708 56.588 437.58 56.188C437.46 55.788 437.392 55.352 437.376 54.88C437.376 54.408 437.448 53.976 437.592 53.584C437.736 53.192 437.936 52.852 438.192 52.564C438.456 52.276 438.764 52.052 439.116 51.892C439.476 51.732 439.868 51.652 440.292 51.652C440.844 51.652 441.3 51.768 441.66 52C442.028 52.224 442.32 52.512 442.536 52.864C442.76 53.216 442.912 53.6 442.992 54.016C443.08 54.432 443.116 54.828 443.1 55.204H438.456C438.448 55.476 438.48 55.736 438.552 55.984C438.624 56.224 438.74 56.44 438.9 56.632C439.06 56.816 439.264 56.964 439.512 57.076C439.76 57.188 440.052 57.244 440.388 57.244C440.82 57.244 441.172 57.144 441.444 56.944C441.724 56.744 441.908 56.44 441.996 56.032H443.004ZM444.266 56.668H445.598V57.88C445.598 58.336 445.494 58.728 445.286 59.056C445.078 59.384 444.742 59.616 444.278 59.752V59.152C444.414 59.104 444.526 59.032 444.614 58.936C444.71 58.848 444.786 58.748 444.842 58.636C444.898 58.532 444.934 58.424 444.95 58.312C444.974 58.2 444.982 58.096 444.974 58H444.266V56.668ZM456.621 58H455.541L454.281 53.068H454.257L453.009 58H451.905L449.913 51.796H451.041L452.445 56.872H452.469L453.717 51.796H454.833L456.129 56.872H456.153L457.545 51.796H458.601L456.621 58ZM463.759 54.304C463.743 54.064 463.687 53.836 463.591 53.62C463.503 53.404 463.379 53.22 463.219 53.068C463.067 52.908 462.883 52.784 462.667 52.696C462.459 52.6 462.227 52.552 461.971 52.552C461.707 52.552 461.467 52.6 461.251 52.696C461.043 52.784 460.863 52.908 460.711 53.068C460.559 53.228 460.439 53.416 460.351 53.632C460.263 53.84 460.211 54.064 460.195 54.304H463.759ZM464.743 56.032C464.607 56.728 464.307 57.252 463.843 57.604C463.379 57.956 462.795 58.132 462.091 58.132C461.595 58.132 461.163 58.052 460.795 57.892C460.435 57.732 460.131 57.508 459.883 57.22C459.635 56.932 459.447 56.588 459.319 56.188C459.199 55.788 459.131 55.352 459.115 54.88C459.115 54.408 459.187 53.976 459.331 53.584C459.475 53.192 459.675 52.852 459.931 52.564C460.195 52.276 460.503 52.052 460.855 51.892C461.215 51.732 461.607 51.652 462.031 51.652C462.583 51.652 463.039 51.768 463.399 52C463.767 52.224 464.059 52.512 464.275 52.864C464.499 53.216 464.651 53.6 464.731 54.016C464.819 54.432 464.855 54.828 464.839 55.204H460.195C460.187 55.476 460.219 55.736 460.291 55.984C460.363 56.224 460.479 56.44 460.639 56.632C460.799 56.816 461.003 56.964 461.251 57.076C461.499 57.188 461.791 57.244 462.127 57.244C462.559 57.244 462.911 57.144 463.183 56.944C463.463 56.744 463.647 56.44 463.735 56.032H464.743ZM475.14 58H474.06L472.8 53.068H472.776L471.528 58H470.424L468.432 51.796H469.56L470.964 56.872H470.988L472.236 51.796H473.352L474.648 56.872H474.672L476.064 51.796H477.12L475.14 58ZM479.05 50.68H478.03V49.432H479.05V50.68ZM478.03 51.796H479.05V58H478.03V51.796ZM480.57 49.432H481.59V58H480.57V49.432ZM483.11 49.432H484.13V58H483.11V49.432ZM494.162 57.472C494.162 58.488 493.93 59.248 493.466 59.752C493.002 60.256 492.274 60.508 491.282 60.508C490.994 60.508 490.698 60.476 490.394 60.412C490.098 60.348 489.826 60.244 489.578 60.1C489.338 59.956 489.138 59.768 488.978 59.536C488.818 59.304 488.73 59.02 488.714 58.684H489.734C489.742 58.868 489.798 59.024 489.902 59.152C490.014 59.28 490.146 59.384 490.298 59.464C490.458 59.544 490.63 59.6 490.814 59.632C490.998 59.672 491.174 59.692 491.342 59.692C491.678 59.692 491.962 59.632 492.194 59.512C492.426 59.4 492.618 59.24 492.77 59.032C492.922 58.832 493.03 58.588 493.094 58.3C493.166 58.012 493.202 57.696 493.202 57.352V56.944H493.178C493.002 57.328 492.734 57.612 492.374 57.796C492.022 57.972 491.646 58.06 491.246 58.06C490.782 58.06 490.378 57.976 490.034 57.808C489.69 57.64 489.402 57.416 489.17 57.136C488.938 56.848 488.762 56.516 488.642 56.14C488.53 55.756 488.474 55.352 488.474 54.928C488.474 54.56 488.522 54.184 488.618 53.8C488.714 53.408 488.874 53.056 489.098 52.744C489.322 52.424 489.618 52.164 489.986 51.964C490.354 51.756 490.806 51.652 491.342 51.652C491.734 51.652 492.094 51.74 492.422 51.916C492.75 52.084 493.006 52.34 493.19 52.684H493.202V51.796H494.162V57.472ZM491.306 57.172C491.642 57.172 491.926 57.104 492.158 56.968C492.398 56.824 492.59 56.64 492.734 56.416C492.878 56.184 492.982 55.924 493.046 55.636C493.118 55.348 493.154 55.06 493.154 54.772C493.154 54.5 493.122 54.232 493.058 53.968C492.994 53.704 492.89 53.468 492.746 53.26C492.61 53.044 492.43 52.872 492.206 52.744C491.982 52.616 491.71 52.552 491.39 52.552C491.062 52.552 490.782 52.616 490.55 52.744C490.318 52.864 490.126 53.028 489.974 53.236C489.83 53.444 489.722 53.684 489.65 53.956C489.586 54.228 489.554 54.512 489.554 54.808C489.554 55.088 489.582 55.368 489.638 55.648C489.694 55.928 489.79 56.184 489.926 56.416C490.062 56.64 490.242 56.824 490.466 56.968C490.69 57.104 490.97 57.172 491.306 57.172ZM499.889 54.304C499.873 54.064 499.817 53.836 499.721 53.62C499.633 53.404 499.509 53.22 499.349 53.068C499.197 52.908 499.013 52.784 498.797 52.696C498.589 52.6 498.357 52.552 498.101 52.552C497.837 52.552 497.597 52.6 497.381 52.696C497.173 52.784 496.993 52.908 496.841 53.068C496.689 53.228 496.569 53.416 496.481 53.632C496.393 53.84 496.341 54.064 496.325 54.304H499.889ZM500.873 56.032C500.737 56.728 500.437 57.252 499.973 57.604C499.509 57.956 498.925 58.132 498.221 58.132C497.725 58.132 497.293 58.052 496.925 57.892C496.565 57.732 496.261 57.508 496.013 57.22C495.765 56.932 495.577 56.588 495.449 56.188C495.329 55.788 495.261 55.352 495.245 54.88C495.245 54.408 495.317 53.976 495.461 53.584C495.605 53.192 495.805 52.852 496.061 52.564C496.325 52.276 496.633 52.052 496.985 51.892C497.345 51.732 497.737 51.652 498.161 51.652C498.713 51.652 499.169 51.768 499.529 52C499.897 52.224 500.189 52.512 500.405 52.864C500.629 53.216 500.781 53.6 500.861 54.016C500.949 54.432 500.985 54.828 500.969 55.204H496.325C496.317 55.476 496.349 55.736 496.421 55.984C496.493 56.224 496.609 56.44 496.769 56.632C496.929 56.816 497.133 56.964 497.381 57.076C497.629 57.188 497.921 57.244 498.257 57.244C498.689 57.244 499.041 57.144 499.313 56.944C499.593 56.744 499.777 56.44 499.865 56.032H500.873ZM503.322 51.796H504.558V52.696H503.322V56.548C503.322 56.668 503.33 56.764 503.346 56.836C503.37 56.908 503.41 56.964 503.466 57.004C503.522 57.044 503.598 57.072 503.694 57.088C503.798 57.096 503.93 57.1 504.09 57.1H504.558V58H503.778C503.514 58 503.286 57.984 503.094 57.952C502.91 57.912 502.758 57.844 502.638 57.748C502.526 57.652 502.442 57.516 502.386 57.34C502.33 57.164 502.302 56.932 502.302 56.644V52.696H501.246V51.796H502.302V49.936H503.322V51.796ZM508.827 49.432H509.847V52.636H509.871C510.039 52.292 510.303 52.044 510.663 51.892C511.023 51.732 511.419 51.652 511.851 51.652C512.331 51.652 512.747 51.74 513.099 51.916C513.459 52.092 513.755 52.332 513.987 52.636C514.227 52.932 514.407 53.276 514.527 53.668C514.647 54.06 514.707 54.476 514.707 54.916C514.707 55.356 514.647 55.772 514.527 56.164C514.415 56.556 514.239 56.9 513.999 57.196C513.767 57.484 513.471 57.712 513.111 57.88C512.759 58.048 512.347 58.132 511.875 58.132C511.723 58.132 511.551 58.116 511.359 58.084C511.175 58.052 510.991 58 510.807 57.928C510.623 57.856 510.447 57.76 510.279 57.64C510.119 57.512 509.983 57.356 509.871 57.172H509.847V58H508.827V49.432ZM513.627 54.844C513.627 54.556 513.587 54.276 513.507 54.004C513.435 53.724 513.319 53.476 513.159 53.26C513.007 53.044 512.807 52.872 512.559 52.744C512.319 52.616 512.035 52.552 511.707 52.552C511.363 52.552 511.071 52.62 510.831 52.756C510.591 52.892 510.395 53.072 510.243 53.296C510.091 53.512 509.979 53.76 509.907 54.04C509.843 54.32 509.811 54.604 509.811 54.892C509.811 55.196 509.847 55.492 509.919 55.78C509.991 56.06 510.103 56.308 510.255 56.524C510.415 56.74 510.619 56.916 510.867 57.052C511.115 57.18 511.415 57.244 511.767 57.244C512.119 57.244 512.411 57.176 512.643 57.04C512.883 56.904 513.075 56.724 513.219 56.5C513.363 56.276 513.467 56.02 513.531 55.732C513.595 55.444 513.627 55.148 513.627 54.844ZM521.281 57.976C521.105 58.08 520.861 58.132 520.549 58.132C520.285 58.132 520.073 58.06 519.913 57.916C519.761 57.764 519.685 57.52 519.685 57.184C519.405 57.52 519.077 57.764 518.701 57.916C518.333 58.06 517.933 58.132 517.501 58.132C517.221 58.132 516.953 58.1 516.697 58.036C516.449 57.972 516.233 57.872 516.049 57.736C515.865 57.6 515.717 57.424 515.605 57.208C515.501 56.984 515.449 56.716 515.449 56.404C515.449 56.052 515.509 55.764 515.629 55.54C515.749 55.316 515.905 55.136 516.097 55C516.297 54.856 516.521 54.748 516.769 54.676C517.025 54.604 517.285 54.544 517.549 54.496C517.829 54.44 518.093 54.4 518.341 54.376C518.597 54.344 518.821 54.304 519.013 54.256C519.205 54.2 519.357 54.124 519.469 54.028C519.581 53.924 519.637 53.776 519.637 53.584C519.637 53.36 519.593 53.18 519.505 53.044C519.425 52.908 519.317 52.804 519.181 52.732C519.053 52.66 518.905 52.612 518.737 52.588C518.577 52.564 518.417 52.552 518.257 52.552C517.825 52.552 517.465 52.636 517.177 52.804C516.889 52.964 516.733 53.272 516.709 53.728H515.689C515.705 53.344 515.785 53.02 515.929 52.756C516.073 52.492 516.265 52.28 516.505 52.12C516.745 51.952 517.017 51.832 517.321 51.76C517.633 51.688 517.965 51.652 518.317 51.652C518.597 51.652 518.873 51.672 519.145 51.712C519.425 51.752 519.677 51.836 519.901 51.964C520.125 52.084 520.305 52.256 520.441 52.48C520.577 52.704 520.645 52.996 520.645 53.356V56.548C520.645 56.788 520.657 56.964 520.681 57.076C520.713 57.188 520.809 57.244 520.969 57.244C521.057 57.244 521.161 57.224 521.281 57.184V57.976ZM519.625 54.796C519.497 54.892 519.329 54.964 519.121 55.012C518.913 55.052 518.693 55.088 518.461 55.12C518.237 55.144 518.009 55.176 517.777 55.216C517.545 55.248 517.337 55.304 517.153 55.384C516.969 55.464 516.817 55.58 516.697 55.732C516.585 55.876 516.529 56.076 516.529 56.332C516.529 56.5 516.561 56.644 516.625 56.764C516.697 56.876 516.785 56.968 516.889 57.04C517.001 57.112 517.129 57.164 517.273 57.196C517.417 57.228 517.569 57.244 517.729 57.244C518.065 57.244 518.353 57.2 518.593 57.112C518.833 57.016 519.029 56.9 519.181 56.764C519.333 56.62 519.445 56.468 519.517 56.308C519.589 56.14 519.625 55.984 519.625 55.84V54.796ZM526.322 53.788C526.242 53.396 526.074 53.092 525.818 52.876C525.562 52.66 525.218 52.552 524.786 52.552C524.418 52.552 524.11 52.62 523.862 52.756C523.614 52.892 523.414 53.072 523.262 53.296C523.118 53.52 523.014 53.78 522.95 54.076C522.886 54.364 522.854 54.664 522.854 54.976C522.854 55.264 522.886 55.544 522.95 55.816C523.022 56.088 523.13 56.332 523.274 56.548C523.418 56.756 523.606 56.924 523.838 57.052C524.07 57.18 524.346 57.244 524.666 57.244C525.17 57.244 525.562 57.112 525.842 56.848C526.13 56.584 526.306 56.212 526.37 55.732H527.414C527.302 56.5 527.014 57.092 526.55 57.508C526.094 57.924 525.47 58.132 524.678 58.132C524.206 58.132 523.786 58.056 523.418 57.904C523.058 57.752 522.754 57.536 522.506 57.256C522.266 56.976 522.082 56.644 521.954 56.26C521.834 55.868 521.774 55.44 521.774 54.976C521.774 54.512 521.834 54.08 521.954 53.68C522.074 53.272 522.254 52.92 522.494 52.624C522.742 52.32 523.05 52.084 523.418 51.916C523.786 51.74 524.214 51.652 524.702 51.652C525.054 51.652 525.382 51.696 525.686 51.784C525.998 51.864 526.27 51.992 526.502 52.168C526.742 52.344 526.938 52.568 527.09 52.84C527.242 53.104 527.338 53.42 527.378 53.788H526.322ZM528.495 49.432H529.515V54.508L532.347 51.796H533.715L531.255 54.052L533.895 58H532.599L530.475 54.76L529.515 55.648V58H528.495V49.432ZM539.174 51.796H540.41V52.696H539.174V56.548C539.174 56.668 539.182 56.764 539.198 56.836C539.222 56.908 539.262 56.964 539.318 57.004C539.374 57.044 539.45 57.072 539.546 57.088C539.65 57.096 539.782 57.1 539.942 57.1H540.41V58H539.63C539.366 58 539.138 57.984 538.946 57.952C538.762 57.912 538.61 57.844 538.49 57.748C538.378 57.652 538.294 57.516 538.238 57.34C538.182 57.164 538.154 56.932 538.154 56.644V52.696H537.098V51.796H538.154V49.936H539.174V51.796ZM542.167 54.904C542.167 55.28 542.215 55.616 542.311 55.912C542.415 56.2 542.555 56.444 542.731 56.644C542.907 56.836 543.111 56.984 543.343 57.088C543.583 57.192 543.835 57.244 544.099 57.244C544.363 57.244 544.611 57.192 544.843 57.088C545.083 56.984 545.291 56.836 545.467 56.644C545.643 56.444 545.779 56.2 545.875 55.912C545.979 55.616 546.031 55.28 546.031 54.904C546.031 54.528 545.979 54.196 545.875 53.908C545.779 53.612 545.643 53.364 545.467 53.164C545.291 52.964 545.083 52.812 544.843 52.708C544.611 52.604 544.363 52.552 544.099 52.552C543.835 52.552 543.583 52.604 543.343 52.708C543.111 52.812 542.907 52.964 542.731 53.164C542.555 53.364 542.415 53.612 542.311 53.908C542.215 54.196 542.167 54.528 542.167 54.904ZM541.087 54.904C541.087 54.448 541.151 54.024 541.279 53.632C541.407 53.232 541.599 52.888 541.855 52.6C542.111 52.304 542.427 52.072 542.803 51.904C543.179 51.736 543.611 51.652 544.099 51.652C544.595 51.652 545.027 51.736 545.395 51.904C545.771 52.072 546.087 52.304 546.343 52.6C546.599 52.888 546.791 53.232 546.919 53.632C547.047 54.024 547.111 54.448 547.111 54.904C547.111 55.36 547.047 55.784 546.919 56.176C546.791 56.568 546.599 56.912 546.343 57.208C546.087 57.496 545.771 57.724 545.395 57.892C545.027 58.052 544.595 58.132 544.099 58.132C543.611 58.132 543.179 58.052 542.803 57.892C542.427 57.724 542.111 57.496 541.855 57.208C541.599 56.912 541.407 56.568 541.279 56.176C541.151 55.784 541.087 55.36 541.087 54.904ZM553.849 58.828C553.729 59.132 553.609 59.388 553.489 59.596C553.377 59.804 553.249 59.972 553.105 60.1C552.969 60.236 552.813 60.332 552.637 60.388C552.469 60.452 552.273 60.484 552.049 60.484C551.929 60.484 551.809 60.476 551.689 60.46C551.569 60.444 551.453 60.416 551.341 60.376V59.44C551.429 59.48 551.529 59.512 551.641 59.536C551.761 59.568 551.861 59.584 551.941 59.584C552.149 59.584 552.321 59.532 552.457 59.428C552.601 59.332 552.709 59.192 552.781 59.008L553.201 57.964L550.741 51.796H551.893L553.705 56.872H553.729L555.469 51.796H556.549L553.849 58.828ZM558.037 54.904C558.037 55.28 558.085 55.616 558.181 55.912C558.285 56.2 558.425 56.444 558.601 56.644C558.777 56.836 558.981 56.984 559.213 57.088C559.453 57.192 559.705 57.244 559.969 57.244C560.233 57.244 560.481 57.192 560.713 57.088C560.953 56.984 561.161 56.836 561.337 56.644C561.513 56.444 561.649 56.2 561.745 55.912C561.849 55.616 561.901 55.28 561.901 54.904C561.901 54.528 561.849 54.196 561.745 53.908C561.649 53.612 561.513 53.364 561.337 53.164C561.161 52.964 560.953 52.812 560.713 52.708C560.481 52.604 560.233 52.552 559.969 52.552C559.705 52.552 559.453 52.604 559.213 52.708C558.981 52.812 558.777 52.964 558.601 53.164C558.425 53.364 558.285 53.612 558.181 53.908C558.085 54.196 558.037 54.528 558.037 54.904ZM556.957 54.904C556.957 54.448 557.021 54.024 557.149 53.632C557.277 53.232 557.469 52.888 557.725 52.6C557.981 52.304 558.297 52.072 558.673 51.904C559.049 51.736 559.481 51.652 559.969 51.652C560.465 51.652 560.897 51.736 561.265 51.904C561.641 52.072 561.957 52.304 562.213 52.6C562.469 52.888 562.661 53.232 562.789 53.632C562.917 54.024 562.981 54.448 562.981 54.904C562.981 55.36 562.917 55.784 562.789 56.176C562.661 56.568 562.469 56.912 562.213 57.208C561.957 57.496 561.641 57.724 561.265 57.892C560.897 58.052 560.465 58.132 559.969 58.132C559.481 58.132 559.049 58.052 558.673 57.892C558.297 57.724 557.981 57.496 557.725 57.208C557.469 56.912 557.277 56.568 557.149 56.176C557.021 55.784 556.957 55.36 556.957 54.904ZM569.2 58H568.24V57.016H568.216C568 57.4 567.724 57.684 567.388 57.868C567.052 58.044 566.656 58.132 566.2 58.132C565.792 58.132 565.452 58.08 565.18 57.976C564.908 57.864 564.688 57.708 564.52 57.508C564.352 57.308 564.232 57.072 564.16 56.8C564.096 56.52 564.064 56.212 564.064 55.876V51.796H565.084V55.996C565.084 56.38 565.196 56.684 565.42 56.908C565.644 57.132 565.952 57.244 566.344 57.244C566.656 57.244 566.924 57.196 567.148 57.1C567.38 57.004 567.572 56.868 567.724 56.692C567.876 56.516 567.988 56.312 568.06 56.08C568.14 55.84 568.18 55.58 568.18 55.3V51.796H569.2V58ZM570.84 56.668H572.172V58H570.84V56.668Z" fill="#1F2026"/>
</g>
<defs>
<filter id="filter0_d_3217_2897" x="21.5" y="22.5" width="47" height="47" filterUnits="userSpaceOnUse" color-interpolation-filters="sRGB">
<feFlood flood-opacity="0" result="BackgroundImageFix"/>
<feColorMatrix in="SourceAlpha" type="matrix" values="0 0 0 0 0 0 0 0 0 0 0 0 0 0 0 0 0 0 127 0" result="hardAlpha"/>
<feOffset dy="6"/>
<feGaussianBlur stdDeviation="3"/>
<feComposite in2="hardAlpha" operator="out"/>
<feColorMatrix type="matrix" values="0 0 0 0 0.971501 0 0 0 0 0.863092 0 0 0 0 0.646276 0 0 0 1 0"/>
<feBlend mode="normal" in2="BackgroundImageFix" result="effect1_dropShadow_3217_2897"/>
<feBlend mode="normal" in="SourceGraphic" in2="effect1_dropShadow_3217_2897" result="shape"/>
</filter>
<clipPath id="clip0_3217_2897">
<rect width="737" height="80" rx="14" fill="white"/>
</clipPath>
<clipPath id="clip1_3217_2897">
<rect width="20" height="20" fill="white" transform="translate(35 30)"/>
</clipPath>
</defs>
</svg>
