<svg width="107" height="106" viewBox="0 0 107 106" fill="none" xmlns="http://www.w3.org/2000/svg">
<mask id="path-1-inside-1_3217_3061" fill="white">
<path d="M47.4251 83C51.0501 69.875 63.7251 60.5 78.3251 62.05C92.2251 63.525 103.275 75.25 103.975 89.2C104.15 92.875 103.65 96.4 102.575 99.675C101.925 101.675 99.9751 103 97.8501 103H23.3951C10.7751 103 1.31005 91.4525 3.78505 79.0775L19.0001 3H49.0001L59.0001 20.5L37.5751 35.825L31.5001 28"/>
</mask>
<path d="M78.3251 62.05L78.1139 64.0388L78.114 64.0388L78.3251 62.05ZM103.975 89.2L105.973 89.1049L105.973 89.0998L103.975 89.2ZM102.575 99.675L100.675 99.0512L100.673 99.0568L102.575 99.675ZM3.78505 79.0775L5.74622 79.4697L5.74622 79.4697L3.78505 79.0775ZM19.0001 3V1H17.3604L17.0389 2.60778L19.0001 3ZM49.0001 3L50.7365 2.00772L50.1607 1H49.0001V3ZM59.0001 20.5L60.1636 22.1267L61.6326 21.0759L60.7365 19.5077L59.0001 20.5ZM37.5751 35.825L35.9953 37.0515L37.1745 38.5705L38.7386 37.4517L37.5751 35.825ZM49.3529 83.5324C52.7269 71.3163 64.5225 62.5959 78.1139 64.0388L78.5362 60.0612C62.9276 58.4041 49.3732 68.4337 45.4972 82.4676L49.3529 83.5324ZM78.114 64.0388C91.0314 65.4096 101.327 76.3303 101.978 89.3002L105.973 89.0998C105.223 74.1697 93.4187 61.6404 78.5361 60.0612L78.114 64.0388ZM101.977 89.2951C102.141 92.7263 101.674 96.0077 100.675 99.0512L104.475 100.299C105.626 96.7923 106.159 93.0237 105.973 89.1049L101.977 89.2951ZM100.673 99.0568C100.311 100.172 99.1749 101 97.8501 101V105C100.775 105 103.539 103.178 104.477 100.293L100.673 99.0568ZM97.8501 101H23.3951V105H97.8501V101ZM23.3951 101C12.0374 101 3.51869 90.6074 5.74622 79.4697L1.82389 78.6853C-0.898575 92.2976 9.51272 105 23.3951 105V101ZM5.74622 79.4697L20.9612 3.39222L17.0389 2.60778L1.82389 78.6853L5.74622 79.4697ZM19.0001 5H49.0001V1H19.0001V5ZM47.2636 3.99228L57.2636 21.4923L60.7365 19.5077L50.7365 2.00772L47.2636 3.99228ZM57.8365 18.8733L36.4115 34.1983L38.7386 37.4517L60.1636 22.1267L57.8365 18.8733ZM39.1548 34.5985L33.0798 26.7735L29.9203 29.2265L35.9953 37.0515L39.1548 34.5985Z" fill="#612C68" mask="url(#path-1-inside-1_3217_3061)"/>
<path d="M47.4251 83C51.0501 69.875 63.725 60.5 78.325 62.05C92.225 63.525 103.275 75.25 103.975 89.2C104.15 92.875 103.65 96.4 102.575 99.675C101.925 101.675 99.975 103 97.85 103H23.3951C10.7751 103 1.31005 91.4525 3.78505 79.0775L19.0001 3H49.0001L59.0001 20.5L37.5751 35.825L31.5001 28M37.6001 35.825L49.0001 78" stroke="#612C68" stroke-width="5" stroke-miterlimit="2" stroke-linecap="round" stroke-linejoin="round"/>
</svg>
