<svg width="86" height="106" viewBox="0 0 86 106" fill="none" xmlns="http://www.w3.org/2000/svg">
<path d="M3.00244 63.3503C8.07744 63.3503 15.1574 61.8403 19.6024 65.1003L28.4124 71.5503C31.6874 73.9503 35.2324 73.1603 38.8874 72.5903C43.6974 71.8353 48.0024 75.9403 48.0024 81.2803C48.0024 82.7403 37.6374 86.4553 36.1424 87.1603C34.703 87.8409 33.1051 88.1159 31.5209 87.9556C29.9367 87.7952 28.4263 87.2056 27.1524 86.2503L17.2124 78.9653" stroke="#612C68" stroke-width="5" stroke-linecap="round" stroke-linejoin="round"/>
<path d="M48.0024 78.0002L68.4574 68.5502C70.2614 67.9269 72.2071 67.8384 74.0602 68.2952C75.9133 68.7521 77.5949 69.7349 78.9024 71.1252L82.2524 74.6302C83.4524 75.8802 83.1724 77.9902 81.6874 78.8502L42.4174 101.655C41.2573 102.335 39.9697 102.769 38.6347 102.93C37.2997 103.091 35.9459 102.975 34.6574 102.59L3.00244 93.1352M43.0124 53.0002C43.0124 53.0002 53.5124 41.8052 53.5124 28.0002C53.5124 14.1952 43.0124 3.00024 43.0124 3.00024C43.0124 3.00024 32.5124 14.1952 32.5124 28.0002C32.5124 41.8052 43.0124 53.0002 43.0124 53.0002ZM43.0124 53.0002C43.0124 53.0002 58.3474 52.6602 68.0124 42.8002C77.6774 32.9352 78.0124 17.2852 78.0124 17.2852C78.0124 17.2852 71.6624 17.4252 64.5624 20.1552M43.0124 53.0002C43.0124 53.0002 27.6774 52.6602 18.0124 42.8002C8.34744 32.9352 8.01244 17.2852 8.01244 17.2852C8.01244 17.2852 14.3624 17.4252 21.4624 20.1552" stroke="#612C68" stroke-width="5" stroke-linecap="round" stroke-linejoin="round"/>
</svg>
