<svg width="110" height="110" viewBox="0 0 110 110" fill="none" xmlns="http://www.w3.org/2000/svg">
<path d="M81.8387 96.4996C85.7287 96.4996 89.4594 94.9543 92.21 92.2037M81.8387 96.4996C77.9487 96.4996 74.218 94.9543 71.4674 92.2037M81.8387 96.4996V107.499M92.21 92.2037C94.9607 89.453 96.506 85.7224 96.506 81.8324M92.21 92.2037L99.9873 99.981M96.506 81.8324C96.506 77.9423 94.9607 74.2117 92.21 71.461M96.506 81.8324H107.505M92.21 71.461C89.4594 68.7104 85.7287 67.1651 81.8387 67.1651M92.21 71.461L99.9873 63.6837M81.8387 67.1651C77.9487 67.1651 74.218 68.7104 71.4674 71.461M81.8387 67.1651V56.1658M71.4674 71.461C68.7167 74.2117 67.1714 77.9423 67.1714 81.8324M71.4674 71.461L63.6901 63.6837M67.1714 81.8324C67.1714 85.7224 68.7167 89.453 71.4674 92.2037M67.1714 81.8324H56.1721M71.4674 92.2037L63.6901 99.981M79.3934 56.1658H84.284M98.2606 61.9571L101.714 65.4104M107.505 79.387V84.2777M101.714 98.2543L98.2606 101.708M84.284 107.499H79.3934M65.4168 101.708L61.9634 98.2543M56.1721 84.2777V79.387M61.9634 65.4104L65.4168 61.9571" stroke="#612C68" stroke-width="5" stroke-linecap="round" stroke-linejoin="round"/>
<path d="M88.8335 37.4997V16.5464C88.8424 15.2782 88.4847 14.0344 87.8033 12.9647C87.1219 11.895 86.146 11.045 84.9928 10.5171C72.5943 5.10756 59.1936 2.3756 45.6669 2.49978C32.1402 2.3756 18.7396 5.10756 6.34106 10.5171C5.18792 11.045 4.21192 11.895 3.53054 12.9647C2.84916 14.0344 2.49143 15.2782 2.50041 16.5464V50.2583C2.50041 66.7409 9.71505 89.2342 40.8976 101.227C43.9678 102.407 47.3661 102.407 50.4363 101.227" stroke="#612C68" stroke-width="5" stroke-linecap="round" stroke-linejoin="round"/>
<path d="M54.3808 53.7679C51.1437 52.4546 47.6336 51.9567 44.159 52.3177C40.6844 52.6788 37.3517 53.8879 34.4539 55.8387C31.556 57.7895 29.1817 60.4223 27.5397 63.5056C25.8977 66.589 25.0382 70.0285 25.0369 73.5218M46.3541 45.6479C49.8085 45.6479 53.1213 44.2756 55.5639 41.8331C58.0065 39.3905 59.3788 36.0776 59.3788 32.6233C59.3788 29.1689 58.0065 25.856 55.5639 23.4135C53.1213 20.9709 49.8085 19.5986 46.3541 19.5986C42.8998 19.5986 39.5869 20.9709 37.1443 23.4135C34.7017 25.856 33.3295 29.1689 33.3295 32.6233C33.3295 36.0776 34.7017 39.3905 37.1443 41.8331C39.5869 44.2756 42.8998 45.6479 46.3541 45.6479Z" stroke="#612C68" stroke-width="5" stroke-linecap="round" stroke-linejoin="round"/>
</svg>
