<svg width="609" height="50" viewBox="0 0 609 50" fill="none" xmlns="http://www.w3.org/2000/svg">
<rect width="609" height="50" rx="14" fill="#DCF5D4"/>
<rect x="20" y="14" width="22" height="22" rx="11" fill="#58B039"/>
<path d="M35.6668 21.7917L29.2502 28.2084L26.3335 25.2917" stroke="white" stroke-width="2" stroke-linecap="round" stroke-linejoin="round"/>
<path d="M61.54 23.513C61.4013 22.8543 61.0937 22.3603 60.617 22.031C60.149 21.7017 59.59 21.537 58.94 21.537C58.3853 21.537 57.9087 21.641 57.51 21.849C57.12 22.057 56.795 22.3387 56.535 22.694C56.2837 23.0407 56.0973 23.4393 55.976 23.89C55.8547 24.3407 55.794 24.8087 55.794 25.294C55.794 25.8227 55.8547 26.3253 55.976 26.802C56.0973 27.27 56.2837 27.6817 56.535 28.037C56.795 28.3837 57.1243 28.661 57.523 28.869C57.9217 29.077 58.3983 29.181 58.953 29.181C59.3603 29.181 59.72 29.116 60.032 28.986C60.3527 28.8473 60.6257 28.661 60.851 28.427C61.085 28.1843 61.267 27.8983 61.397 27.569C61.527 27.2397 61.605 26.8843 61.631 26.503H62.866C62.7447 27.673 62.3417 28.583 61.657 29.233C60.9723 29.883 60.0363 30.208 58.849 30.208C58.1297 30.208 57.5013 30.0867 56.964 29.844C56.4267 29.5927 55.9803 29.2503 55.625 28.817C55.2697 28.3837 55.001 27.8723 54.819 27.283C54.6457 26.6937 54.559 26.061 54.559 25.385C54.559 24.709 54.6543 24.0763 54.845 23.487C55.0357 22.889 55.313 22.369 55.677 21.927C56.0497 21.485 56.509 21.1383 57.055 20.887C57.6097 20.627 58.2423 20.497 58.953 20.497C59.4383 20.497 59.8977 20.562 60.331 20.692C60.7643 20.822 61.15 21.0127 61.488 21.264C61.826 21.5153 62.1077 21.8317 62.333 22.213C62.5583 22.5857 62.7057 23.019 62.775 23.513H61.54ZM64.8898 26.646C64.8898 27.0533 64.9418 27.4173 65.0458 27.738C65.1585 28.05 65.3102 28.3143 65.5008 28.531C65.6915 28.739 65.9125 28.8993 66.1638 29.012C66.4238 29.1247 66.6968 29.181 66.9828 29.181C67.2688 29.181 67.5375 29.1247 67.7888 29.012C68.0488 28.8993 68.2742 28.739 68.4648 28.531C68.6555 28.3143 68.8028 28.05 68.9068 27.738C69.0195 27.4173 69.0758 27.0533 69.0758 26.646C69.0758 26.2387 69.0195 25.879 68.9068 25.567C68.8028 25.2463 68.6555 24.9777 68.4648 24.761C68.2742 24.5443 68.0488 24.3797 67.7888 24.267C67.5375 24.1543 67.2688 24.098 66.9828 24.098C66.6968 24.098 66.4238 24.1543 66.1638 24.267C65.9125 24.3797 65.6915 24.5443 65.5008 24.761C65.3102 24.9777 65.1585 25.2463 65.0458 25.567C64.9418 25.879 64.8898 26.2387 64.8898 26.646ZM63.7198 26.646C63.7198 26.152 63.7892 25.6927 63.9278 25.268C64.0665 24.8347 64.2745 24.462 64.5518 24.15C64.8292 23.8293 65.1715 23.578 65.5788 23.396C65.9862 23.214 66.4542 23.123 66.9828 23.123C67.5202 23.123 67.9882 23.214 68.3868 23.396C68.7942 23.578 69.1365 23.8293 69.4138 24.15C69.6912 24.462 69.8992 24.8347 70.0378 25.268C70.1765 25.6927 70.2458 26.152 70.2458 26.646C70.2458 27.14 70.1765 27.5993 70.0378 28.024C69.8992 28.4487 69.6912 28.8213 69.4138 29.142C69.1365 29.454 68.7942 29.701 68.3868 29.883C67.9882 30.0563 67.5202 30.143 66.9828 30.143C66.4542 30.143 65.9862 30.0563 65.5788 29.883C65.1715 29.701 64.8292 29.454 64.5518 29.142C64.2745 28.8213 64.0665 28.4487 63.9278 28.024C63.7892 27.5993 63.7198 27.14 63.7198 26.646ZM71.4187 23.279H72.4587V24.345H72.4847C72.944 23.5303 73.672 23.123 74.6687 23.123C75.1107 23.123 75.479 23.1837 75.7737 23.305C76.0683 23.4263 76.3067 23.5953 76.4887 23.812C76.6707 24.0287 76.7963 24.2887 76.8657 24.592C76.9437 24.8867 76.9827 25.216 76.9827 25.58V30H75.8777V25.45C75.8777 25.034 75.7563 24.7047 75.5137 24.462C75.271 24.2193 74.9373 24.098 74.5127 24.098C74.1747 24.098 73.88 24.15 73.6287 24.254C73.386 24.358 73.1823 24.5053 73.0177 24.696C72.853 24.8867 72.7273 25.112 72.6407 25.372C72.5627 25.6233 72.5237 25.9007 72.5237 26.204V30H71.4187V23.279ZM84.3103 29.428C84.3103 30.5287 84.059 31.352 83.5563 31.898C83.0536 32.444 82.265 32.717 81.1903 32.717C80.8783 32.717 80.5576 32.6823 80.2283 32.613C79.9076 32.5437 79.613 32.431 79.3443 32.275C79.0843 32.119 78.8676 31.9153 78.6943 31.664C78.521 31.4127 78.4256 31.105 78.4083 30.741H79.5133C79.522 30.9403 79.5826 31.1093 79.6953 31.248C79.8166 31.3867 79.9596 31.4993 80.1243 31.586C80.2976 31.6727 80.484 31.7333 80.6833 31.768C80.8826 31.8113 81.0733 31.833 81.2553 31.833C81.6193 31.833 81.927 31.768 82.1783 31.638C82.4296 31.5167 82.6376 31.3433 82.8023 31.118C82.967 30.9013 83.084 30.637 83.1533 30.325C83.2313 30.013 83.2703 29.6707 83.2703 29.298V28.856H83.2443C83.0536 29.272 82.7633 29.5797 82.3733 29.779C81.992 29.9697 81.5846 30.065 81.1513 30.065C80.6486 30.065 80.211 29.974 79.8383 29.792C79.4656 29.61 79.1536 29.3673 78.9023 29.064C78.651 28.752 78.4603 28.3923 78.3303 27.985C78.209 27.569 78.1483 27.1313 78.1483 26.672C78.1483 26.2733 78.2003 25.866 78.3043 25.45C78.4083 25.0253 78.5816 24.644 78.8243 24.306C79.067 23.9593 79.3876 23.6777 79.7863 23.461C80.185 23.2357 80.6746 23.123 81.2553 23.123C81.68 23.123 82.07 23.2183 82.4253 23.409C82.7806 23.591 83.058 23.8683 83.2573 24.241H83.2703V23.279H84.3103V29.428ZM81.2163 29.103C81.5803 29.103 81.888 29.0293 82.1393 28.882C82.3993 28.726 82.6073 28.5267 82.7633 28.284C82.9193 28.0327 83.032 27.751 83.1013 27.439C83.1793 27.127 83.2183 26.815 83.2183 26.503C83.2183 26.2083 83.1836 25.918 83.1143 25.632C83.045 25.346 82.9323 25.0903 82.7763 24.865C82.629 24.631 82.434 24.4447 82.1913 24.306C81.9486 24.1673 81.654 24.098 81.3073 24.098C80.952 24.098 80.6486 24.1673 80.3973 24.306C80.146 24.436 79.938 24.6137 79.7733 24.839C79.6173 25.0643 79.5003 25.3243 79.4223 25.619C79.353 25.9137 79.3183 26.2213 79.3183 26.542C79.3183 26.8453 79.3486 27.1487 79.4093 27.452C79.47 27.7553 79.574 28.0327 79.7213 28.284C79.8686 28.5267 80.0636 28.726 80.3063 28.882C80.549 29.0293 80.8523 29.103 81.2163 29.103ZM85.8082 23.279H86.8482V24.696H86.8742C87.1428 24.15 87.4722 23.747 87.8622 23.487C88.2522 23.227 88.7462 23.1057 89.3442 23.123V24.293C88.9022 24.293 88.5252 24.3537 88.2132 24.475C87.9012 24.5963 87.6498 24.774 87.4592 25.008C87.2685 25.242 87.1298 25.528 87.0432 25.866C86.9565 26.1953 86.9132 26.5767 86.9132 27.01V30H85.8082V23.279ZM96.0003 29.974C95.8096 30.0867 95.5453 30.143 95.2073 30.143C94.9213 30.143 94.6916 30.065 94.5183 29.909C94.3536 29.7443 94.2713 29.48 94.2713 29.116C93.9679 29.48 93.6126 29.7443 93.2053 29.909C92.8066 30.065 92.3733 30.143 91.9053 30.143C91.6019 30.143 91.3116 30.1083 91.0343 30.039C90.7656 29.9697 90.5316 29.8613 90.3323 29.714C90.1329 29.5667 89.9726 29.376 89.8513 29.142C89.7386 28.8993 89.6823 28.609 89.6823 28.271C89.6823 27.8897 89.7473 27.5777 89.8773 27.335C90.0073 27.0923 90.1763 26.8973 90.3843 26.75C90.6009 26.594 90.8436 26.477 91.1123 26.399C91.3896 26.321 91.6713 26.256 91.9573 26.204C92.2606 26.1433 92.5466 26.1 92.8153 26.074C93.0926 26.0393 93.3353 25.996 93.5433 25.944C93.7513 25.8833 93.9159 25.801 94.0373 25.697C94.1586 25.5843 94.2193 25.424 94.2193 25.216C94.2193 24.9733 94.1716 24.7783 94.0763 24.631C93.9896 24.4837 93.8726 24.371 93.7253 24.293C93.5866 24.215 93.4263 24.163 93.2443 24.137C93.0709 24.111 92.8976 24.098 92.7243 24.098C92.2563 24.098 91.8663 24.189 91.5543 24.371C91.2423 24.5443 91.0733 24.878 91.0473 25.372H89.9423C89.9596 24.956 90.0463 24.605 90.2023 24.319C90.3583 24.033 90.5663 23.8033 90.8263 23.63C91.0863 23.448 91.3809 23.318 91.7103 23.24C92.0483 23.162 92.4079 23.123 92.7893 23.123C93.0926 23.123 93.3916 23.1447 93.6863 23.188C93.9896 23.2313 94.2626 23.3223 94.5053 23.461C94.7479 23.591 94.9429 23.7773 95.0903 24.02C95.2376 24.2627 95.3113 24.579 95.3113 24.969V28.427C95.3113 28.687 95.3243 28.8777 95.3503 28.999C95.3849 29.1203 95.4889 29.181 95.6623 29.181C95.7576 29.181 95.8703 29.1593 96.0003 29.116V29.974ZM94.2063 26.529C94.0676 26.633 93.8856 26.711 93.6603 26.763C93.4349 26.8063 93.1966 26.8453 92.9453 26.88C92.7026 26.906 92.4556 26.9407 92.2043 26.984C91.9529 27.0187 91.7276 27.0793 91.5283 27.166C91.3289 27.2527 91.1643 27.3783 91.0343 27.543C90.9129 27.699 90.8523 27.9157 90.8523 28.193C90.8523 28.375 90.8869 28.531 90.9563 28.661C91.0343 28.7823 91.1296 28.882 91.2423 28.96C91.3636 29.038 91.5023 29.0943 91.6583 29.129C91.8143 29.1637 91.9789 29.181 92.1523 29.181C92.5163 29.181 92.8283 29.1333 93.0883 29.038C93.3483 28.934 93.5606 28.8083 93.7253 28.661C93.8899 28.505 94.0113 28.3403 94.0893 28.167C94.1673 27.985 94.2063 27.816 94.2063 27.66V26.529ZM98.4327 23.279H99.7717V24.254H98.4327V28.427C98.4327 28.557 98.4413 28.661 98.4587 28.739C98.4847 28.817 98.528 28.8777 98.5887 28.921C98.6493 28.9643 98.7317 28.9947 98.8357 29.012C98.9483 29.0207 99.0913 29.025 99.2647 29.025H99.7717V30H98.9267C98.6407 30 98.3937 29.9827 98.1857 29.948C97.9863 29.9047 97.8217 29.831 97.6917 29.727C97.5703 29.623 97.4793 29.4757 97.4187 29.285C97.358 29.0943 97.3277 28.843 97.3277 28.531V24.254H96.1837V23.279H97.3277V21.264H98.4327V23.279ZM106.433 30H105.393V28.934H105.367C105.133 29.35 104.834 29.6577 104.47 29.857C104.106 30.0477 103.677 30.143 103.183 30.143C102.741 30.143 102.373 30.0867 102.078 29.974C101.784 29.8527 101.545 29.6837 101.363 29.467C101.181 29.2503 101.051 28.9947 100.973 28.7C100.904 28.3967 100.869 28.063 100.869 27.699V23.279H101.974V27.829C101.974 28.245 102.096 28.5743 102.338 28.817C102.581 29.0597 102.915 29.181 103.339 29.181C103.677 29.181 103.968 29.129 104.21 29.025C104.462 28.921 104.67 28.7737 104.834 28.583C104.999 28.3923 105.12 28.1713 105.198 27.92C105.285 27.66 105.328 27.3783 105.328 27.075V23.279H106.433V30ZM108.028 20.718H109.133V30H108.028V20.718ZM116.669 29.974C116.478 30.0867 116.214 30.143 115.876 30.143C115.59 30.143 115.36 30.065 115.187 29.909C115.022 29.7443 114.94 29.48 114.94 29.116C114.636 29.48 114.281 29.7443 113.874 29.909C113.475 30.065 113.042 30.143 112.574 30.143C112.27 30.143 111.98 30.1083 111.703 30.039C111.434 29.9697 111.2 29.8613 111.001 29.714C110.801 29.5667 110.641 29.376 110.52 29.142C110.407 28.8993 110.351 28.609 110.351 28.271C110.351 27.8897 110.416 27.5777 110.546 27.335C110.676 27.0923 110.845 26.8973 111.053 26.75C111.269 26.594 111.512 26.477 111.781 26.399C112.058 26.321 112.34 26.256 112.626 26.204C112.929 26.1433 113.215 26.1 113.484 26.074C113.761 26.0393 114.004 25.996 114.212 25.944C114.42 25.8833 114.584 25.801 114.706 25.697C114.827 25.5843 114.888 25.424 114.888 25.216C114.888 24.9733 114.84 24.7783 114.745 24.631C114.658 24.4837 114.541 24.371 114.394 24.293C114.255 24.215 114.095 24.163 113.913 24.137C113.739 24.111 113.566 24.098 113.393 24.098C112.925 24.098 112.535 24.189 112.223 24.371C111.911 24.5443 111.742 24.878 111.716 25.372H110.611C110.628 24.956 110.715 24.605 110.871 24.319C111.027 24.033 111.235 23.8033 111.495 23.63C111.755 23.448 112.049 23.318 112.379 23.24C112.717 23.162 113.076 23.123 113.458 23.123C113.761 23.123 114.06 23.1447 114.355 23.188C114.658 23.2313 114.931 23.3223 115.174 23.461C115.416 23.591 115.611 23.7773 115.759 24.02C115.906 24.2627 115.98 24.579 115.98 24.969V28.427C115.98 28.687 115.993 28.8777 116.019 28.999C116.053 29.1203 116.157 29.181 116.331 29.181C116.426 29.181 116.539 29.1593 116.669 29.116V29.974ZM114.875 26.529C114.736 26.633 114.554 26.711 114.329 26.763C114.103 26.8063 113.865 26.8453 113.614 26.88C113.371 26.906 113.124 26.9407 112.873 26.984C112.621 27.0187 112.396 27.0793 112.197 27.166C111.997 27.2527 111.833 27.3783 111.703 27.543C111.581 27.699 111.521 27.9157 111.521 28.193C111.521 28.375 111.555 28.531 111.625 28.661C111.703 28.7823 111.798 28.882 111.911 28.96C112.032 29.038 112.171 29.0943 112.327 29.129C112.483 29.1637 112.647 29.181 112.821 29.181C113.185 29.181 113.497 29.1333 113.757 29.038C114.017 28.934 114.229 28.8083 114.394 28.661C114.558 28.505 114.68 28.3403 114.758 28.167C114.836 27.985 114.875 27.816 114.875 27.66V26.529ZM119.101 23.279H120.44V24.254H119.101V28.427C119.101 28.557 119.11 28.661 119.127 28.739C119.153 28.817 119.196 28.8777 119.257 28.921C119.318 28.9643 119.4 28.9947 119.504 29.012C119.617 29.0207 119.76 29.025 119.933 29.025H120.44V30H119.595C119.309 30 119.062 29.9827 118.854 29.948C118.655 29.9047 118.49 29.831 118.36 29.727C118.239 29.623 118.148 29.4757 118.087 29.285C118.026 29.0943 117.996 28.843 117.996 28.531V24.254H116.852V23.279H117.996V21.264H119.101V23.279ZM122.708 22.07H121.603V20.718H122.708V22.07ZM121.603 23.279H122.708V30H121.603V23.279ZM125.096 26.646C125.096 27.0533 125.148 27.4173 125.252 27.738C125.364 28.05 125.516 28.3143 125.707 28.531C125.897 28.739 126.118 28.8993 126.37 29.012C126.63 29.1247 126.903 29.181 127.189 29.181C127.475 29.181 127.743 29.1247 127.995 29.012C128.255 28.8993 128.48 28.739 128.671 28.531C128.861 28.3143 129.009 28.05 129.113 27.738C129.225 27.4173 129.282 27.0533 129.282 26.646C129.282 26.2387 129.225 25.879 129.113 25.567C129.009 25.2463 128.861 24.9777 128.671 24.761C128.48 24.5443 128.255 24.3797 127.995 24.267C127.743 24.1543 127.475 24.098 127.189 24.098C126.903 24.098 126.63 24.1543 126.37 24.267C126.118 24.3797 125.897 24.5443 125.707 24.761C125.516 24.9777 125.364 25.2463 125.252 25.567C125.148 25.879 125.096 26.2387 125.096 26.646ZM123.926 26.646C123.926 26.152 123.995 25.6927 124.134 25.268C124.272 24.8347 124.48 24.462 124.758 24.15C125.035 23.8293 125.377 23.578 125.785 23.396C126.192 23.214 126.66 23.123 127.189 23.123C127.726 23.123 128.194 23.214 128.593 23.396C129 23.578 129.342 23.8293 129.62 24.15C129.897 24.462 130.105 24.8347 130.244 25.268C130.382 25.6927 130.452 26.152 130.452 26.646C130.452 27.14 130.382 27.5993 130.244 28.024C130.105 28.4487 129.897 28.8213 129.62 29.142C129.342 29.454 129 29.701 128.593 29.883C128.194 30.0563 127.726 30.143 127.189 30.143C126.66 30.143 126.192 30.0563 125.785 29.883C125.377 29.701 125.035 29.454 124.758 29.142C124.48 28.8213 124.272 28.4487 124.134 28.024C123.995 27.5993 123.926 27.14 123.926 26.646ZM131.624 23.279H132.664V24.345H132.69C133.15 23.5303 133.878 23.123 134.874 23.123C135.316 23.123 135.685 23.1837 135.979 23.305C136.274 23.4263 136.512 23.5953 136.694 23.812C136.876 24.0287 137.002 24.2887 137.071 24.592C137.149 24.8867 137.188 25.216 137.188 25.58V30H136.083V25.45C136.083 25.034 135.962 24.7047 135.719 24.462C135.477 24.2193 135.143 24.098 134.718 24.098C134.38 24.098 134.086 24.15 133.834 24.254C133.592 24.358 133.388 24.5053 133.223 24.696C133.059 24.8867 132.933 25.112 132.846 25.372C132.768 25.6233 132.729 25.9007 132.729 26.204V30H131.624V23.279ZM139.394 27.881C139.403 28.1237 139.459 28.3317 139.563 28.505C139.667 28.6697 139.801 28.804 139.966 28.908C140.139 29.0033 140.33 29.0727 140.538 29.116C140.755 29.1593 140.976 29.181 141.201 29.181C141.374 29.181 141.556 29.168 141.747 29.142C141.938 29.116 142.111 29.0683 142.267 28.999C142.432 28.9297 142.566 28.83 142.67 28.7C142.774 28.5613 142.826 28.388 142.826 28.18C142.826 27.894 142.718 27.6773 142.501 27.53C142.284 27.3827 142.011 27.2657 141.682 27.179C141.361 27.0837 141.01 27.0013 140.629 26.932C140.248 26.854 139.892 26.75 139.563 26.62C139.242 26.4813 138.974 26.2907 138.757 26.048C138.54 25.8053 138.432 25.4673 138.432 25.034C138.432 24.696 138.506 24.4057 138.653 24.163C138.809 23.9203 139.004 23.7253 139.238 23.578C139.481 23.422 139.749 23.3093 140.044 23.24C140.347 23.162 140.646 23.123 140.941 23.123C141.322 23.123 141.673 23.1577 141.994 23.227C142.315 23.2877 142.596 23.4003 142.839 23.565C143.09 23.721 143.29 23.9377 143.437 24.215C143.584 24.4837 143.671 24.8217 143.697 25.229H142.592C142.575 25.0123 142.518 24.8347 142.423 24.696C142.328 24.5487 142.206 24.4317 142.059 24.345C141.912 24.2583 141.747 24.1977 141.565 24.163C141.392 24.1197 141.214 24.098 141.032 24.098C140.867 24.098 140.698 24.111 140.525 24.137C140.36 24.163 140.209 24.2107 140.07 24.28C139.931 24.3407 139.819 24.4273 139.732 24.54C139.645 24.644 139.602 24.7827 139.602 24.956C139.602 25.1467 139.667 25.307 139.797 25.437C139.936 25.5583 140.109 25.6623 140.317 25.749C140.525 25.827 140.759 25.8963 141.019 25.957C141.279 26.009 141.539 26.0653 141.799 26.126C142.076 26.1867 142.345 26.2603 142.605 26.347C142.874 26.4337 143.108 26.5507 143.307 26.698C143.515 26.8367 143.68 27.0143 143.801 27.231C143.931 27.4477 143.996 27.7163 143.996 28.037C143.996 28.4443 143.909 28.7823 143.736 29.051C143.571 29.3197 143.35 29.5363 143.073 29.701C142.804 29.8657 142.497 29.9783 142.15 30.039C141.812 30.1083 141.474 30.143 141.136 30.143C140.763 30.143 140.408 30.104 140.07 30.026C139.732 29.948 139.433 29.8223 139.173 29.649C138.913 29.467 138.705 29.233 138.549 28.947C138.393 28.6523 138.306 28.297 138.289 27.881H139.394ZM145.218 28.557H146.661V30H145.218V28.557ZM146.557 23.578L146.232 27.621H145.647L145.322 23.578V20.718H146.557V23.578ZM155.827 26.204V30H154.592V26.204L151.004 20.718H152.473L155.255 25.138L157.972 20.718H159.376L155.827 26.204ZM159.469 26.646C159.469 27.0533 159.521 27.4173 159.625 27.738C159.738 28.05 159.889 28.3143 160.08 28.531C160.271 28.739 160.492 28.8993 160.743 29.012C161.003 29.1247 161.276 29.181 161.562 29.181C161.848 29.181 162.117 29.1247 162.368 29.012C162.628 28.8993 162.853 28.739 163.044 28.531C163.235 28.3143 163.382 28.05 163.486 27.738C163.599 27.4173 163.655 27.0533 163.655 26.646C163.655 26.2387 163.599 25.879 163.486 25.567C163.382 25.2463 163.235 24.9777 163.044 24.761C162.853 24.5443 162.628 24.3797 162.368 24.267C162.117 24.1543 161.848 24.098 161.562 24.098C161.276 24.098 161.003 24.1543 160.743 24.267C160.492 24.3797 160.271 24.5443 160.08 24.761C159.889 24.9777 159.738 25.2463 159.625 25.567C159.521 25.879 159.469 26.2387 159.469 26.646ZM158.299 26.646C158.299 26.152 158.368 25.6927 158.507 25.268C158.646 24.8347 158.854 24.462 159.131 24.15C159.408 23.8293 159.751 23.578 160.158 23.396C160.565 23.214 161.033 23.123 161.562 23.123C162.099 23.123 162.567 23.214 162.966 23.396C163.373 23.578 163.716 23.8293 163.993 24.15C164.27 24.462 164.478 24.8347 164.617 25.268C164.756 25.6927 164.825 26.152 164.825 26.646C164.825 27.14 164.756 27.5993 164.617 28.024C164.478 28.4487 164.27 28.8213 163.993 29.142C163.716 29.454 163.373 29.701 162.966 29.883C162.567 30.0563 162.099 30.143 161.562 30.143C161.033 30.143 160.565 30.0563 160.158 29.883C159.751 29.701 159.408 29.454 159.131 29.142C158.854 28.8213 158.646 28.4487 158.507 28.024C158.368 27.5993 158.299 27.14 158.299 26.646ZM171.562 30H170.522V28.934H170.496C170.262 29.35 169.963 29.6577 169.599 29.857C169.235 30.0477 168.806 30.143 168.312 30.143C167.87 30.143 167.501 30.0867 167.207 29.974C166.912 29.8527 166.674 29.6837 166.492 29.467C166.31 29.2503 166.18 28.9947 166.102 28.7C166.032 28.3967 165.998 28.063 165.998 27.699V23.279H167.103V27.829C167.103 28.245 167.224 28.5743 167.467 28.817C167.709 29.0597 168.043 29.181 168.468 29.181C168.806 29.181 169.096 29.129 169.339 29.025C169.59 28.921 169.798 28.7737 169.963 28.583C170.127 28.3923 170.249 28.1713 170.327 27.92C170.413 27.66 170.457 27.3783 170.457 27.075V23.279H171.562V30ZM173.052 23.279H174.092V24.696H174.118C174.387 24.15 174.716 23.747 175.106 23.487C175.496 23.227 175.99 23.1057 176.588 23.123V24.293C176.146 24.293 175.769 24.3537 175.457 24.475C175.145 24.5963 174.894 24.774 174.703 25.008C174.513 25.242 174.374 25.528 174.287 25.866C174.201 26.1953 174.157 26.5767 174.157 27.01V30H173.052V23.279ZM181.585 26.698C181.585 27.01 181.624 27.3177 181.702 27.621C181.788 27.9157 181.914 28.18 182.079 28.414C182.252 28.648 182.469 28.8343 182.729 28.973C182.997 29.1117 183.309 29.181 183.665 29.181C184.037 29.181 184.354 29.1073 184.614 28.96C184.874 28.8127 185.086 28.622 185.251 28.388C185.415 28.1453 185.532 27.8723 185.602 27.569C185.68 27.2657 185.719 26.958 185.719 26.646C185.719 26.3167 185.68 26.0003 185.602 25.697C185.524 25.385 185.398 25.112 185.225 24.878C185.06 24.644 184.843 24.4577 184.575 24.319C184.306 24.1717 183.981 24.098 183.6 24.098C183.227 24.098 182.911 24.1717 182.651 24.319C182.391 24.4663 182.183 24.6613 182.027 24.904C181.871 25.1467 181.758 25.424 181.689 25.736C181.619 26.048 181.585 26.3687 181.585 26.698ZM186.785 30H185.68V29.09H185.654C185.472 29.4627 185.186 29.7313 184.796 29.896C184.406 30.0607 183.977 30.143 183.509 30.143C182.989 30.143 182.534 30.0477 182.144 29.857C181.762 29.6663 181.442 29.4107 181.182 29.09C180.93 28.7693 180.74 28.3967 180.61 27.972C180.48 27.5473 180.415 27.0967 180.415 26.62C180.415 26.1433 180.475 25.6927 180.597 25.268C180.727 24.8433 180.917 24.475 181.169 24.163C181.429 23.8423 181.749 23.591 182.131 23.409C182.521 23.2183 182.971 23.123 183.483 23.123C183.656 23.123 183.842 23.1403 184.042 23.175C184.241 23.2097 184.44 23.2703 184.64 23.357C184.839 23.435 185.025 23.5433 185.199 23.682C185.381 23.812 185.532 23.9767 185.654 24.176H185.68V20.718H186.785V30ZM193.022 25.996C193.004 25.736 192.944 25.489 192.84 25.255C192.744 25.021 192.61 24.8217 192.437 24.657C192.272 24.4837 192.073 24.3493 191.839 24.254C191.613 24.15 191.362 24.098 191.085 24.098C190.799 24.098 190.539 24.15 190.305 24.254C190.079 24.3493 189.884 24.4837 189.72 24.657C189.555 24.8303 189.425 25.034 189.33 25.268C189.234 25.4933 189.178 25.736 189.161 25.996H193.022ZM194.088 27.868C193.94 28.622 193.615 29.1897 193.113 29.571C192.61 29.9523 191.977 30.143 191.215 30.143C190.677 30.143 190.209 30.0563 189.811 29.883C189.421 29.7097 189.091 29.467 188.823 29.155C188.554 28.843 188.35 28.4703 188.212 28.037C188.082 27.6037 188.008 27.1313 187.991 26.62C187.991 26.1087 188.069 25.6407 188.225 25.216C188.381 24.7913 188.597 24.423 188.875 24.111C189.161 23.799 189.494 23.5563 189.876 23.383C190.266 23.2097 190.69 23.123 191.15 23.123C191.748 23.123 192.242 23.2487 192.632 23.5C193.03 23.7427 193.347 24.0547 193.581 24.436C193.823 24.8173 193.988 25.2333 194.075 25.684C194.17 26.1347 194.209 26.5637 194.192 26.971H189.161C189.152 27.2657 189.187 27.5473 189.265 27.816C189.343 28.076 189.468 28.31 189.642 28.518C189.815 28.7173 190.036 28.8777 190.305 28.999C190.573 29.1203 190.89 29.181 191.254 29.181C191.722 29.181 192.103 29.0727 192.398 28.856C192.701 28.6393 192.9 28.31 192.996 27.868H194.088ZM196.741 23.279H198.08V24.254H196.741V28.427C196.741 28.557 196.75 28.661 196.767 28.739C196.793 28.817 196.836 28.8777 196.897 28.921C196.958 28.9643 197.04 28.9947 197.144 29.012C197.257 29.0207 197.4 29.025 197.573 29.025H198.08V30H197.235C196.949 30 196.702 29.9827 196.494 29.948C196.295 29.9047 196.13 29.831 196 29.727C195.879 29.623 195.788 29.4757 195.727 29.285C195.666 29.0943 195.636 28.843 195.636 28.531V24.254H194.492V23.279H195.636V21.264H196.741V23.279ZM205.132 29.974C204.941 30.0867 204.677 30.143 204.339 30.143C204.053 30.143 203.823 30.065 203.65 29.909C203.485 29.7443 203.403 29.48 203.403 29.116C203.099 29.48 202.744 29.7443 202.337 29.909C201.938 30.065 201.505 30.143 201.037 30.143C200.733 30.143 200.443 30.1083 200.166 30.039C199.897 29.9697 199.663 29.8613 199.464 29.714C199.264 29.5667 199.104 29.376 198.983 29.142C198.87 28.8993 198.814 28.609 198.814 28.271C198.814 27.8897 198.879 27.5777 199.009 27.335C199.139 27.0923 199.308 26.8973 199.516 26.75C199.732 26.594 199.975 26.477 200.244 26.399C200.521 26.321 200.803 26.256 201.089 26.204C201.392 26.1433 201.678 26.1 201.947 26.074C202.224 26.0393 202.467 25.996 202.675 25.944C202.883 25.8833 203.047 25.801 203.169 25.697C203.29 25.5843 203.351 25.424 203.351 25.216C203.351 24.9733 203.303 24.7783 203.208 24.631C203.121 24.4837 203.004 24.371 202.857 24.293C202.718 24.215 202.558 24.163 202.376 24.137C202.202 24.111 202.029 24.098 201.856 24.098C201.388 24.098 200.998 24.189 200.686 24.371C200.374 24.5443 200.205 24.878 200.179 25.372H199.074C199.091 24.956 199.178 24.605 199.334 24.319C199.49 24.033 199.698 23.8033 199.958 23.63C200.218 23.448 200.512 23.318 200.842 23.24C201.18 23.162 201.539 23.123 201.921 23.123C202.224 23.123 202.523 23.1447 202.818 23.188C203.121 23.2313 203.394 23.3223 203.637 23.461C203.879 23.591 204.074 23.7773 204.222 24.02C204.369 24.2627 204.443 24.579 204.443 24.969V28.427C204.443 28.687 204.456 28.8777 204.482 28.999C204.516 29.1203 204.62 29.181 204.794 29.181C204.889 29.181 205.002 29.1593 205.132 29.116V29.974ZM203.338 26.529C203.199 26.633 203.017 26.711 202.792 26.763C202.566 26.8063 202.328 26.8453 202.077 26.88C201.834 26.906 201.587 26.9407 201.336 26.984C201.084 27.0187 200.859 27.0793 200.66 27.166C200.46 27.2527 200.296 27.3783 200.166 27.543C200.044 27.699 199.984 27.9157 199.984 28.193C199.984 28.375 200.018 28.531 200.088 28.661C200.166 28.7823 200.261 28.882 200.374 28.96C200.495 29.038 200.634 29.0943 200.79 29.129C200.946 29.1637 201.11 29.181 201.284 29.181C201.648 29.181 201.96 29.1333 202.22 29.038C202.48 28.934 202.692 28.8083 202.857 28.661C203.021 28.505 203.143 28.3403 203.221 28.167C203.299 27.985 203.338 27.816 203.338 27.66V26.529ZM207.2 22.07H206.095V20.718H207.2V22.07ZM206.095 23.279H207.2V30H206.095V23.279ZM208.847 20.718H209.952V30H208.847V20.718ZM212.21 27.881C212.218 28.1237 212.275 28.3317 212.379 28.505C212.483 28.6697 212.617 28.804 212.782 28.908C212.955 29.0033 213.146 29.0727 213.354 29.116C213.57 29.1593 213.791 29.181 214.017 29.181C214.19 29.181 214.372 29.168 214.563 29.142C214.753 29.116 214.927 29.0683 215.083 28.999C215.247 28.9297 215.382 28.83 215.486 28.7C215.59 28.5613 215.642 28.388 215.642 28.18C215.642 27.894 215.533 27.6773 215.317 27.53C215.1 27.3827 214.827 27.2657 214.498 27.179C214.177 27.0837 213.826 27.0013 213.445 26.932C213.063 26.854 212.708 26.75 212.379 26.62C212.058 26.4813 211.789 26.2907 211.573 26.048C211.356 25.8053 211.248 25.4673 211.248 25.034C211.248 24.696 211.321 24.4057 211.469 24.163C211.625 23.9203 211.82 23.7253 212.054 23.578C212.296 23.422 212.565 23.3093 212.86 23.24C213.163 23.162 213.462 23.123 213.757 23.123C214.138 23.123 214.489 23.1577 214.81 23.227C215.13 23.2877 215.412 23.4003 215.655 23.565C215.906 23.721 216.105 23.9377 216.253 24.215C216.4 24.4837 216.487 24.8217 216.513 25.229H215.408C215.39 25.0123 215.334 24.8347 215.239 24.696C215.143 24.5487 215.022 24.4317 214.875 24.345C214.727 24.2583 214.563 24.1977 214.381 24.163C214.207 24.1197 214.03 24.098 213.848 24.098C213.683 24.098 213.514 24.111 213.341 24.137C213.176 24.163 213.024 24.2107 212.886 24.28C212.747 24.3407 212.634 24.4273 212.548 24.54C212.461 24.644 212.418 24.7827 212.418 24.956C212.418 25.1467 212.483 25.307 212.613 25.437C212.751 25.5583 212.925 25.6623 213.133 25.749C213.341 25.827 213.575 25.8963 213.835 25.957C214.095 26.009 214.355 26.0653 214.615 26.126C214.892 26.1867 215.161 26.2603 215.421 26.347C215.689 26.4337 215.923 26.5507 216.123 26.698C216.331 26.8367 216.495 27.0143 216.617 27.231C216.747 27.4477 216.812 27.7163 216.812 28.037C216.812 28.4443 216.725 28.7823 216.552 29.051C216.387 29.3197 216.166 29.5363 215.889 29.701C215.62 29.8657 215.312 29.9783 214.966 30.039C214.628 30.1083 214.29 30.143 213.952 30.143C213.579 30.143 213.224 30.104 212.886 30.026C212.548 29.948 212.249 29.8223 211.989 29.649C211.729 29.467 211.521 29.233 211.365 28.947C211.209 28.6523 211.122 28.297 211.105 27.881H212.21ZM221.392 20.718H222.497V24.267H222.523C222.61 24.059 222.731 23.8857 222.887 23.747C223.043 23.5997 223.216 23.4827 223.407 23.396C223.606 23.3007 223.81 23.2313 224.018 23.188C224.235 23.1447 224.443 23.123 224.642 23.123C225.084 23.123 225.452 23.1837 225.747 23.305C226.042 23.4263 226.28 23.5953 226.462 23.812C226.644 24.0287 226.77 24.2887 226.839 24.592C226.917 24.8867 226.956 25.216 226.956 25.58V30H225.851V25.45C225.851 25.034 225.73 24.7047 225.487 24.462C225.244 24.2193 224.911 24.098 224.486 24.098C224.148 24.098 223.853 24.15 223.602 24.254C223.359 24.358 223.156 24.5053 222.991 24.696C222.826 24.8867 222.701 25.112 222.614 25.372C222.536 25.6233 222.497 25.9007 222.497 26.204V30H221.392V20.718ZM234.44 29.974C234.249 30.0867 233.985 30.143 233.647 30.143C233.361 30.143 233.131 30.065 232.958 29.909C232.793 29.7443 232.711 29.48 232.711 29.116C232.407 29.48 232.052 29.7443 231.645 29.909C231.246 30.065 230.813 30.143 230.345 30.143C230.041 30.143 229.751 30.1083 229.474 30.039C229.205 29.9697 228.971 29.8613 228.772 29.714C228.572 29.5667 228.412 29.376 228.291 29.142C228.178 28.8993 228.122 28.609 228.122 28.271C228.122 27.8897 228.187 27.5777 228.317 27.335C228.447 27.0923 228.616 26.8973 228.824 26.75C229.04 26.594 229.283 26.477 229.552 26.399C229.829 26.321 230.111 26.256 230.397 26.204C230.7 26.1433 230.986 26.1 231.255 26.074C231.532 26.0393 231.775 25.996 231.983 25.944C232.191 25.8833 232.355 25.801 232.477 25.697C232.598 25.5843 232.659 25.424 232.659 25.216C232.659 24.9733 232.611 24.7783 232.516 24.631C232.429 24.4837 232.312 24.371 232.165 24.293C232.026 24.215 231.866 24.163 231.684 24.137C231.51 24.111 231.337 24.098 231.164 24.098C230.696 24.098 230.306 24.189 229.994 24.371C229.682 24.5443 229.513 24.878 229.487 25.372H228.382C228.399 24.956 228.486 24.605 228.642 24.319C228.798 24.033 229.006 23.8033 229.266 23.63C229.526 23.448 229.82 23.318 230.15 23.24C230.488 23.162 230.847 23.123 231.229 23.123C231.532 23.123 231.831 23.1447 232.126 23.188C232.429 23.2313 232.702 23.3223 232.945 23.461C233.187 23.591 233.382 23.7773 233.53 24.02C233.677 24.2627 233.751 24.579 233.751 24.969V28.427C233.751 28.687 233.764 28.8777 233.79 28.999C233.824 29.1203 233.928 29.181 234.102 29.181C234.197 29.181 234.31 29.1593 234.44 29.116V29.974ZM232.646 26.529C232.507 26.633 232.325 26.711 232.1 26.763C231.874 26.8063 231.636 26.8453 231.385 26.88C231.142 26.906 230.895 26.9407 230.644 26.984C230.392 27.0187 230.167 27.0793 229.968 27.166C229.768 27.2527 229.604 27.3783 229.474 27.543C229.352 27.699 229.292 27.9157 229.292 28.193C229.292 28.375 229.326 28.531 229.396 28.661C229.474 28.7823 229.569 28.882 229.682 28.96C229.803 29.038 229.942 29.0943 230.098 29.129C230.254 29.1637 230.418 29.181 230.592 29.181C230.956 29.181 231.268 29.1333 231.528 29.038C231.788 28.934 232 28.8083 232.165 28.661C232.329 28.505 232.451 28.3403 232.529 28.167C232.607 27.985 232.646 27.816 232.646 27.66V26.529ZM238.367 30H237.184L234.688 23.279H235.923L237.808 28.882H237.834L239.667 23.279H240.824L238.367 30ZM246.375 25.996C246.358 25.736 246.297 25.489 246.193 25.255C246.098 25.021 245.963 24.8217 245.79 24.657C245.625 24.4837 245.426 24.3493 245.192 24.254C244.967 24.15 244.715 24.098 244.438 24.098C244.152 24.098 243.892 24.15 243.658 24.254C243.433 24.3493 243.238 24.4837 243.073 24.657C242.908 24.8303 242.778 25.034 242.683 25.268C242.588 25.4933 242.531 25.736 242.514 25.996H246.375ZM247.441 27.868C247.294 28.622 246.969 29.1897 246.466 29.571C245.963 29.9523 245.331 30.143 244.568 30.143C244.031 30.143 243.563 30.0563 243.164 29.883C242.774 29.7097 242.445 29.467 242.176 29.155C241.907 28.843 241.704 28.4703 241.565 28.037C241.435 27.6037 241.361 27.1313 241.344 26.62C241.344 26.1087 241.422 25.6407 241.578 25.216C241.734 24.7913 241.951 24.423 242.228 24.111C242.514 23.799 242.848 23.5563 243.229 23.383C243.619 23.2097 244.044 23.123 244.503 23.123C245.101 23.123 245.595 23.2487 245.985 23.5C246.384 23.7427 246.7 24.0547 246.934 24.436C247.177 24.8173 247.341 25.2333 247.428 25.684C247.523 26.1347 247.562 26.5637 247.545 26.971H242.514C242.505 27.2657 242.54 27.5473 242.618 27.816C242.696 28.076 242.822 28.31 242.995 28.518C243.168 28.7173 243.389 28.8777 243.658 28.999C243.927 29.1203 244.243 29.181 244.607 29.181C245.075 29.181 245.456 29.0727 245.751 28.856C246.054 28.6393 246.254 28.31 246.349 27.868H247.441ZM252.088 20.718H253.193V24.189H253.219C253.401 23.8163 253.687 23.5477 254.077 23.383C254.467 23.2097 254.896 23.123 255.364 23.123C255.884 23.123 256.334 23.2183 256.716 23.409C257.106 23.5997 257.426 23.8597 257.678 24.189C257.938 24.5097 258.133 24.8823 258.263 25.307C258.393 25.7317 258.458 26.1823 258.458 26.659C258.458 27.1357 258.393 27.5863 258.263 28.011C258.141 28.4357 257.951 28.8083 257.691 29.129C257.439 29.441 257.119 29.688 256.729 29.87C256.347 30.052 255.901 30.143 255.39 30.143C255.225 30.143 255.039 30.1257 254.831 30.091C254.631 30.0563 254.432 30 254.233 29.922C254.033 29.844 253.843 29.74 253.661 29.61C253.487 29.4713 253.34 29.3023 253.219 29.103H253.193V30H252.088V20.718ZM257.288 26.581C257.288 26.269 257.244 25.9657 257.158 25.671C257.08 25.3677 256.954 25.099 256.781 24.865C256.616 24.631 256.399 24.4447 256.131 24.306C255.871 24.1673 255.563 24.098 255.208 24.098C254.835 24.098 254.519 24.1717 254.259 24.319C253.999 24.4663 253.786 24.6613 253.622 24.904C253.457 25.138 253.336 25.4067 253.258 25.71C253.188 26.0133 253.154 26.321 253.154 26.633C253.154 26.9623 253.193 27.283 253.271 27.595C253.349 27.8983 253.47 28.167 253.635 28.401C253.808 28.635 254.029 28.8257 254.298 28.973C254.566 29.1117 254.891 29.181 255.273 29.181C255.654 29.181 255.97 29.1073 256.222 28.96C256.482 28.8127 256.69 28.6177 256.846 28.375C257.002 28.1323 257.114 27.855 257.184 27.543C257.253 27.231 257.288 26.9103 257.288 26.581ZM264.292 25.996C264.274 25.736 264.214 25.489 264.11 25.255C264.014 25.021 263.88 24.8217 263.707 24.657C263.542 24.4837 263.343 24.3493 263.109 24.254C262.883 24.15 262.632 24.098 262.355 24.098C262.069 24.098 261.809 24.15 261.575 24.254C261.349 24.3493 261.154 24.4837 260.99 24.657C260.825 24.8303 260.695 25.034 260.6 25.268C260.504 25.4933 260.448 25.736 260.431 25.996H264.292ZM265.358 27.868C265.21 28.622 264.885 29.1897 264.383 29.571C263.88 29.9523 263.247 30.143 262.485 30.143C261.947 30.143 261.479 30.0563 261.081 29.883C260.691 29.7097 260.361 29.467 260.093 29.155C259.824 28.843 259.62 28.4703 259.482 28.037C259.352 27.6037 259.278 27.1313 259.261 26.62C259.261 26.1087 259.339 25.6407 259.495 25.216C259.651 24.7913 259.867 24.423 260.145 24.111C260.431 23.799 260.764 23.5563 261.146 23.383C261.536 23.2097 261.96 23.123 262.42 23.123C263.018 23.123 263.512 23.2487 263.902 23.5C264.3 23.7427 264.617 24.0547 264.851 24.436C265.093 24.8173 265.258 25.2333 265.345 25.684C265.44 26.1347 265.479 26.5637 265.462 26.971H260.431C260.422 27.2657 260.457 27.5473 260.535 27.816C260.613 28.076 260.738 28.31 260.912 28.518C261.085 28.7173 261.306 28.8777 261.575 28.999C261.843 29.1203 262.16 29.181 262.524 29.181C262.992 29.181 263.373 29.0727 263.668 28.856C263.971 28.6393 264.17 28.31 264.266 27.868H265.358ZM271.144 25.996C271.127 25.736 271.066 25.489 270.962 25.255C270.867 25.021 270.732 24.8217 270.559 24.657C270.394 24.4837 270.195 24.3493 269.961 24.254C269.736 24.15 269.484 24.098 269.207 24.098C268.921 24.098 268.661 24.15 268.427 24.254C268.202 24.3493 268.007 24.4837 267.842 24.657C267.677 24.8303 267.547 25.034 267.452 25.268C267.357 25.4933 267.3 25.736 267.283 25.996H271.144ZM272.21 27.868C272.063 28.622 271.738 29.1897 271.235 29.571C270.732 29.9523 270.1 30.143 269.337 30.143C268.8 30.143 268.332 30.0563 267.933 29.883C267.543 29.7097 267.214 29.467 266.945 29.155C266.676 28.843 266.473 28.4703 266.334 28.037C266.204 27.6037 266.13 27.1313 266.113 26.62C266.113 26.1087 266.191 25.6407 266.347 25.216C266.503 24.7913 266.72 24.423 266.997 24.111C267.283 23.799 267.617 23.5563 267.998 23.383C268.388 23.2097 268.813 23.123 269.272 23.123C269.87 23.123 270.364 23.2487 270.754 23.5C271.153 23.7427 271.469 24.0547 271.703 24.436C271.946 24.8173 272.11 25.2333 272.197 25.684C272.292 26.1347 272.331 26.5637 272.314 26.971H267.283C267.274 27.2657 267.309 27.5473 267.387 27.816C267.465 28.076 267.591 28.31 267.764 28.518C267.937 28.7173 268.158 28.8777 268.427 28.999C268.696 29.1203 269.012 29.181 269.376 29.181C269.844 29.181 270.225 29.0727 270.52 28.856C270.823 28.6393 271.023 28.31 271.118 27.868H272.21ZM273.329 23.279H274.369V24.345H274.395C274.855 23.5303 275.583 23.123 276.579 23.123C277.021 23.123 277.39 23.1837 277.684 23.305C277.979 23.4263 278.217 23.5953 278.399 23.812C278.581 24.0287 278.707 24.2887 278.776 24.592C278.854 24.8867 278.893 25.216 278.893 25.58V30H277.788V25.45C277.788 25.034 277.667 24.7047 277.424 24.462C277.182 24.2193 276.848 24.098 276.423 24.098C276.085 24.098 275.791 24.15 275.539 24.254C275.297 24.358 275.093 24.5053 274.928 24.696C274.764 24.8867 274.638 25.112 274.551 25.372C274.473 25.6233 274.434 25.9007 274.434 26.204V30H273.329V23.279ZM284.587 27.881C284.596 28.1237 284.652 28.3317 284.756 28.505C284.86 28.6697 284.995 28.804 285.159 28.908C285.333 29.0033 285.523 29.0727 285.731 29.116C285.948 29.1593 286.169 29.181 286.394 29.181C286.568 29.181 286.75 29.168 286.94 29.142C287.131 29.116 287.304 29.0683 287.46 28.999C287.625 28.9297 287.759 28.83 287.863 28.7C287.967 28.5613 288.019 28.388 288.019 28.18C288.019 27.894 287.911 27.6773 287.694 27.53C287.478 27.3827 287.205 27.2657 286.875 27.179C286.555 27.0837 286.204 27.0013 285.822 26.932C285.441 26.854 285.086 26.75 284.756 26.62C284.436 26.4813 284.167 26.2907 283.95 26.048C283.734 25.8053 283.625 25.4673 283.625 25.034C283.625 24.696 283.699 24.4057 283.846 24.163C284.002 23.9203 284.197 23.7253 284.431 23.578C284.674 23.422 284.943 23.3093 285.237 23.24C285.541 23.162 285.84 23.123 286.134 23.123C286.516 23.123 286.867 23.1577 287.187 23.227C287.508 23.2877 287.79 23.4003 288.032 23.565C288.284 23.721 288.483 23.9377 288.63 24.215C288.778 24.4837 288.864 24.8217 288.89 25.229H287.785C287.768 25.0123 287.712 24.8347 287.616 24.696C287.521 24.5487 287.4 24.4317 287.252 24.345C287.105 24.2583 286.94 24.1977 286.758 24.163C286.585 24.1197 286.407 24.098 286.225 24.098C286.061 24.098 285.892 24.111 285.718 24.137C285.554 24.163 285.402 24.2107 285.263 24.28C285.125 24.3407 285.012 24.4273 284.925 24.54C284.839 24.644 284.795 24.7827 284.795 24.956C284.795 25.1467 284.86 25.307 284.99 25.437C285.129 25.5583 285.302 25.6623 285.51 25.749C285.718 25.827 285.952 25.8963 286.212 25.957C286.472 26.009 286.732 26.0653 286.992 26.126C287.27 26.1867 287.538 26.2603 287.798 26.347C288.067 26.4337 288.301 26.5507 288.5 26.698C288.708 26.8367 288.873 27.0143 288.994 27.231C289.124 27.4477 289.189 27.7163 289.189 28.037C289.189 28.4443 289.103 28.7823 288.929 29.051C288.765 29.3197 288.544 29.5363 288.266 29.701C287.998 29.8657 287.69 29.9783 287.343 30.039C287.005 30.1083 286.667 30.143 286.329 30.143C285.957 30.143 285.601 30.104 285.263 30.026C284.925 29.948 284.626 29.8223 284.366 29.649C284.106 29.467 283.898 29.233 283.742 28.947C283.586 28.6523 283.5 28.297 283.482 27.881H284.587ZM295.845 30H294.805V28.934H294.779C294.545 29.35 294.246 29.6577 293.882 29.857C293.518 30.0477 293.089 30.143 292.595 30.143C292.153 30.143 291.785 30.0867 291.49 29.974C291.196 29.8527 290.957 29.6837 290.775 29.467C290.593 29.2503 290.463 28.9947 290.385 28.7C290.316 28.3967 290.281 28.063 290.281 27.699V23.279H291.386V27.829C291.386 28.245 291.508 28.5743 291.75 28.817C291.993 29.0597 292.327 29.181 292.751 29.181C293.089 29.181 293.38 29.129 293.622 29.025C293.874 28.921 294.082 28.7737 294.246 28.583C294.411 28.3923 294.532 28.1713 294.61 27.92C294.697 27.66 294.74 27.3783 294.74 27.075V23.279H295.845V30ZM301.938 25.437C301.851 25.0123 301.669 24.683 301.392 24.449C301.115 24.215 300.742 24.098 300.274 24.098C299.875 24.098 299.542 24.1717 299.273 24.319C299.004 24.4663 298.788 24.6613 298.623 24.904C298.467 25.1467 298.354 25.4283 298.285 25.749C298.216 26.061 298.181 26.386 298.181 26.724C298.181 27.036 298.216 27.3393 298.285 27.634C298.363 27.9287 298.48 28.193 298.636 28.427C298.792 28.6523 298.996 28.8343 299.247 28.973C299.498 29.1117 299.797 29.181 300.144 29.181C300.69 29.181 301.115 29.038 301.418 28.752C301.73 28.466 301.921 28.063 301.99 27.543H303.121C303 28.375 302.688 29.0163 302.185 29.467C301.691 29.9177 301.015 30.143 300.157 30.143C299.646 30.143 299.191 30.0607 298.792 29.896C298.402 29.7313 298.073 29.4973 297.804 29.194C297.544 28.8907 297.345 28.531 297.206 28.115C297.076 27.6903 297.011 27.2267 297.011 26.724C297.011 26.2213 297.076 25.7533 297.206 25.32C297.336 24.878 297.531 24.4967 297.791 24.176C298.06 23.8467 298.393 23.591 298.792 23.409C299.191 23.2183 299.654 23.123 300.183 23.123C300.564 23.123 300.92 23.1707 301.249 23.266C301.587 23.3527 301.882 23.4913 302.133 23.682C302.393 23.8727 302.605 24.1153 302.77 24.41C302.935 24.696 303.039 25.0383 303.082 25.437H301.938ZM308.79 25.437C308.704 25.0123 308.522 24.683 308.244 24.449C307.967 24.215 307.594 24.098 307.126 24.098C306.728 24.098 306.394 24.1717 306.125 24.319C305.857 24.4663 305.64 24.6613 305.475 24.904C305.319 25.1467 305.207 25.4283 305.137 25.749C305.068 26.061 305.033 26.386 305.033 26.724C305.033 27.036 305.068 27.3393 305.137 27.634C305.215 27.9287 305.332 28.193 305.488 28.427C305.644 28.6523 305.848 28.8343 306.099 28.973C306.351 29.1117 306.65 29.181 306.996 29.181C307.542 29.181 307.967 29.038 308.27 28.752C308.582 28.466 308.773 28.063 308.842 27.543H309.973C309.852 28.375 309.54 29.0163 309.037 29.467C308.543 29.9177 307.867 30.143 307.009 30.143C306.498 30.143 306.043 30.0607 305.644 29.896C305.254 29.7313 304.925 29.4973 304.656 29.194C304.396 28.8907 304.197 28.531 304.058 28.115C303.928 27.6903 303.863 27.2267 303.863 26.724C303.863 26.2213 303.928 25.7533 304.058 25.32C304.188 24.878 304.383 24.4967 304.643 24.176C304.912 23.8467 305.246 23.591 305.644 23.409C306.043 23.2183 306.507 23.123 307.035 23.123C307.417 23.123 307.772 23.1707 308.101 23.266C308.439 23.3527 308.734 23.4913 308.985 23.682C309.245 23.8727 309.458 24.1153 309.622 24.41C309.787 24.696 309.891 25.0383 309.934 25.437H308.79ZM315.747 25.996C315.729 25.736 315.669 25.489 315.565 25.255C315.469 25.021 315.335 24.8217 315.162 24.657C314.997 24.4837 314.798 24.3493 314.564 24.254C314.338 24.15 314.087 24.098 313.81 24.098C313.524 24.098 313.264 24.15 313.03 24.254C312.804 24.3493 312.609 24.4837 312.445 24.657C312.28 24.8303 312.15 25.034 312.055 25.268C311.959 25.4933 311.903 25.736 311.886 25.996H315.747ZM316.813 27.868C316.665 28.622 316.34 29.1897 315.838 29.571C315.335 29.9523 314.702 30.143 313.94 30.143C313.402 30.143 312.934 30.0563 312.536 29.883C312.146 29.7097 311.816 29.467 311.548 29.155C311.279 28.843 311.075 28.4703 310.937 28.037C310.807 27.6037 310.733 27.1313 310.716 26.62C310.716 26.1087 310.794 25.6407 310.95 25.216C311.106 24.7913 311.322 24.423 311.6 24.111C311.886 23.799 312.219 23.5563 312.601 23.383C312.991 23.2097 313.415 23.123 313.875 23.123C314.473 23.123 314.967 23.2487 315.357 23.5C315.755 23.7427 316.072 24.0547 316.306 24.436C316.548 24.8173 316.713 25.2333 316.8 25.684C316.895 26.1347 316.934 26.5637 316.917 26.971H311.886C311.877 27.2657 311.912 27.5473 311.99 27.816C312.068 28.076 312.193 28.31 312.367 28.518C312.54 28.7173 312.761 28.8777 313.03 28.999C313.298 29.1203 313.615 29.181 313.979 29.181C314.447 29.181 314.828 29.0727 315.123 28.856C315.426 28.6393 315.625 28.31 315.721 27.868H316.813ZM318.608 27.881C318.617 28.1237 318.673 28.3317 318.777 28.505C318.881 28.6697 319.016 28.804 319.18 28.908C319.354 29.0033 319.544 29.0727 319.752 29.116C319.969 29.1593 320.19 29.181 320.415 29.181C320.589 29.181 320.771 29.168 320.961 29.142C321.152 29.116 321.325 29.0683 321.481 28.999C321.646 28.9297 321.78 28.83 321.884 28.7C321.988 28.5613 322.04 28.388 322.04 28.18C322.04 27.894 321.932 27.6773 321.715 27.53C321.499 27.3827 321.226 27.2657 320.896 27.179C320.576 27.0837 320.225 27.0013 319.843 26.932C319.462 26.854 319.107 26.75 318.777 26.62C318.457 26.4813 318.188 26.2907 317.971 26.048C317.755 25.8053 317.646 25.4673 317.646 25.034C317.646 24.696 317.72 24.4057 317.867 24.163C318.023 23.9203 318.218 23.7253 318.452 23.578C318.695 23.422 318.964 23.3093 319.258 23.24C319.562 23.162 319.861 23.123 320.155 23.123C320.537 23.123 320.888 23.1577 321.208 23.227C321.529 23.2877 321.811 23.4003 322.053 23.565C322.305 23.721 322.504 23.9377 322.651 24.215C322.799 24.4837 322.885 24.8217 322.911 25.229H321.806C321.789 25.0123 321.733 24.8347 321.637 24.696C321.542 24.5487 321.421 24.4317 321.273 24.345C321.126 24.2583 320.961 24.1977 320.779 24.163C320.606 24.1197 320.428 24.098 320.246 24.098C320.082 24.098 319.913 24.111 319.739 24.137C319.575 24.163 319.423 24.2107 319.284 24.28C319.146 24.3407 319.033 24.4273 318.946 24.54C318.86 24.644 318.816 24.7827 318.816 24.956C318.816 25.1467 318.881 25.307 319.011 25.437C319.15 25.5583 319.323 25.6623 319.531 25.749C319.739 25.827 319.973 25.8963 320.233 25.957C320.493 26.009 320.753 26.0653 321.013 26.126C321.291 26.1867 321.559 26.2603 321.819 26.347C322.088 26.4337 322.322 26.5507 322.521 26.698C322.729 26.8367 322.894 27.0143 323.015 27.231C323.145 27.4477 323.21 27.7163 323.21 28.037C323.21 28.4443 323.124 28.7823 322.95 29.051C322.786 29.3197 322.565 29.5363 322.287 29.701C322.019 29.8657 321.711 29.9783 321.364 30.039C321.026 30.1083 320.688 30.143 320.35 30.143C319.978 30.143 319.622 30.104 319.284 30.026C318.946 29.948 318.647 29.8223 318.387 29.649C318.127 29.467 317.919 29.233 317.763 28.947C317.607 28.6523 317.521 28.297 317.503 27.881H318.608ZM324.978 27.881C324.987 28.1237 325.043 28.3317 325.147 28.505C325.251 28.6697 325.386 28.804 325.55 28.908C325.724 29.0033 325.914 29.0727 326.122 29.116C326.339 29.1593 326.56 29.181 326.785 29.181C326.959 29.181 327.141 29.168 327.331 29.142C327.522 29.116 327.695 29.0683 327.851 28.999C328.016 28.9297 328.15 28.83 328.254 28.7C328.358 28.5613 328.41 28.388 328.41 28.18C328.41 27.894 328.302 27.6773 328.085 27.53C327.869 27.3827 327.596 27.2657 327.266 27.179C326.946 27.0837 326.595 27.0013 326.213 26.932C325.832 26.854 325.477 26.75 325.147 26.62C324.827 26.4813 324.558 26.2907 324.341 26.048C324.125 25.8053 324.016 25.4673 324.016 25.034C324.016 24.696 324.09 24.4057 324.237 24.163C324.393 23.9203 324.588 23.7253 324.822 23.578C325.065 23.422 325.334 23.3093 325.628 23.24C325.932 23.162 326.231 23.123 326.525 23.123C326.907 23.123 327.258 23.1577 327.578 23.227C327.899 23.2877 328.181 23.4003 328.423 23.565C328.675 23.721 328.874 23.9377 329.021 24.215C329.169 24.4837 329.255 24.8217 329.281 25.229H328.176C328.159 25.0123 328.103 24.8347 328.007 24.696C327.912 24.5487 327.791 24.4317 327.643 24.345C327.496 24.2583 327.331 24.1977 327.149 24.163C326.976 24.1197 326.798 24.098 326.616 24.098C326.452 24.098 326.283 24.111 326.109 24.137C325.945 24.163 325.793 24.2107 325.654 24.28C325.516 24.3407 325.403 24.4273 325.316 24.54C325.23 24.644 325.186 24.7827 325.186 24.956C325.186 25.1467 325.251 25.307 325.381 25.437C325.52 25.5583 325.693 25.6623 325.901 25.749C326.109 25.827 326.343 25.8963 326.603 25.957C326.863 26.009 327.123 26.0653 327.383 26.126C327.661 26.1867 327.929 26.2603 328.189 26.347C328.458 26.4337 328.692 26.5507 328.891 26.698C329.099 26.8367 329.264 27.0143 329.385 27.231C329.515 27.4477 329.58 27.7163 329.58 28.037C329.58 28.4443 329.494 28.7823 329.32 29.051C329.156 29.3197 328.935 29.5363 328.657 29.701C328.389 29.8657 328.081 29.9783 327.734 30.039C327.396 30.1083 327.058 30.143 326.72 30.143C326.348 30.143 325.992 30.104 325.654 30.026C325.316 29.948 325.017 29.8223 324.757 29.649C324.497 29.467 324.289 29.233 324.133 28.947C323.977 28.6523 323.891 28.297 323.873 27.881H324.978ZM331.127 24.254H329.996V23.279H331.127V22.278C331.127 21.732 331.283 21.3203 331.595 21.043C331.916 20.757 332.38 20.614 332.986 20.614C333.09 20.614 333.207 20.6227 333.337 20.64C333.476 20.6573 333.597 20.6833 333.701 20.718V21.68C333.606 21.6453 333.502 21.6237 333.389 21.615C333.277 21.5977 333.173 21.589 333.077 21.589C332.809 21.589 332.601 21.641 332.453 21.745C332.306 21.849 332.232 22.0483 332.232 22.343V23.279H333.532V24.254H332.232V30H331.127V24.254ZM339.953 30H338.913V28.934H338.887C338.653 29.35 338.354 29.6577 337.99 29.857C337.626 30.0477 337.197 30.143 336.703 30.143C336.261 30.143 335.893 30.0867 335.598 29.974C335.303 29.8527 335.065 29.6837 334.883 29.467C334.701 29.2503 334.571 28.9947 334.493 28.7C334.424 28.3967 334.389 28.063 334.389 27.699V23.279H335.494V27.829C335.494 28.245 335.615 28.5743 335.858 28.817C336.101 29.0597 336.434 29.181 336.859 29.181C337.197 29.181 337.487 29.129 337.73 29.025C337.981 28.921 338.189 28.7737 338.354 28.583C338.519 28.3923 338.64 28.1713 338.718 27.92C338.805 27.66 338.848 27.3783 338.848 27.075V23.279H339.953V30ZM341.548 20.718H342.653V30H341.548V20.718ZM344.299 20.718H345.404V30H344.299V20.718ZM349.625 30.897C349.495 31.2263 349.365 31.5037 349.235 31.729C349.114 31.9543 348.975 32.1363 348.819 32.275C348.672 32.4223 348.503 32.5263 348.312 32.587C348.13 32.6563 347.918 32.691 347.675 32.691C347.545 32.691 347.415 32.6823 347.285 32.665C347.155 32.6477 347.03 32.6173 346.908 32.574V31.56C347.004 31.6033 347.112 31.638 347.233 31.664C347.363 31.6987 347.472 31.716 347.558 31.716C347.784 31.716 347.97 31.6597 348.117 31.547C348.273 31.443 348.39 31.2913 348.468 31.092L348.923 29.961L346.258 23.279H347.506L349.469 28.778H349.495L351.38 23.279H352.55L349.625 30.897ZM357.52 27.881C357.529 28.1237 357.585 28.3317 357.689 28.505C357.793 28.6697 357.928 28.804 358.092 28.908C358.266 29.0033 358.456 29.0727 358.664 29.116C358.881 29.1593 359.102 29.181 359.327 29.181C359.501 29.181 359.683 29.168 359.873 29.142C360.064 29.116 360.237 29.0683 360.393 28.999C360.558 28.9297 360.692 28.83 360.796 28.7C360.9 28.5613 360.952 28.388 360.952 28.18C360.952 27.894 360.844 27.6773 360.627 27.53C360.411 27.3827 360.138 27.2657 359.808 27.179C359.488 27.0837 359.137 27.0013 358.755 26.932C358.374 26.854 358.019 26.75 357.689 26.62C357.369 26.4813 357.1 26.2907 356.883 26.048C356.667 25.8053 356.558 25.4673 356.558 25.034C356.558 24.696 356.632 24.4057 356.779 24.163C356.935 23.9203 357.13 23.7253 357.364 23.578C357.607 23.422 357.876 23.3093 358.17 23.24C358.474 23.162 358.773 23.123 359.067 23.123C359.449 23.123 359.8 23.1577 360.12 23.227C360.441 23.2877 360.723 23.4003 360.965 23.565C361.217 23.721 361.416 23.9377 361.563 24.215C361.711 24.4837 361.797 24.8217 361.823 25.229H360.718C360.701 25.0123 360.645 24.8347 360.549 24.696C360.454 24.5487 360.333 24.4317 360.185 24.345C360.038 24.2583 359.873 24.1977 359.691 24.163C359.518 24.1197 359.34 24.098 359.158 24.098C358.994 24.098 358.825 24.111 358.651 24.137C358.487 24.163 358.335 24.2107 358.196 24.28C358.058 24.3407 357.945 24.4273 357.858 24.54C357.772 24.644 357.728 24.7827 357.728 24.956C357.728 25.1467 357.793 25.307 357.923 25.437C358.062 25.5583 358.235 25.6623 358.443 25.749C358.651 25.827 358.885 25.8963 359.145 25.957C359.405 26.009 359.665 26.0653 359.925 26.126C360.203 26.1867 360.471 26.2603 360.731 26.347C361 26.4337 361.234 26.5507 361.433 26.698C361.641 26.8367 361.806 27.0143 361.927 27.231C362.057 27.4477 362.122 27.7163 362.122 28.037C362.122 28.4443 362.036 28.7823 361.862 29.051C361.698 29.3197 361.477 29.5363 361.199 29.701C360.931 29.8657 360.623 29.9783 360.276 30.039C359.938 30.1083 359.6 30.143 359.262 30.143C358.89 30.143 358.534 30.104 358.196 30.026C357.858 29.948 357.559 29.8223 357.299 29.649C357.039 29.467 356.831 29.233 356.675 28.947C356.519 28.6523 356.433 28.297 356.415 27.881H357.52ZM367.881 25.996C367.864 25.736 367.803 25.489 367.699 25.255C367.604 25.021 367.47 24.8217 367.296 24.657C367.132 24.4837 366.932 24.3493 366.698 24.254C366.473 24.15 366.222 24.098 365.944 24.098C365.658 24.098 365.398 24.15 365.164 24.254C364.939 24.3493 364.744 24.4837 364.579 24.657C364.415 24.8303 364.285 25.034 364.189 25.268C364.094 25.4933 364.038 25.736 364.02 25.996H367.881ZM368.947 27.868C368.8 28.622 368.475 29.1897 367.972 29.571C367.47 29.9523 366.837 30.143 366.074 30.143C365.537 30.143 365.069 30.0563 364.67 29.883C364.28 29.7097 363.951 29.467 363.682 29.155C363.414 28.843 363.21 28.4703 363.071 28.037C362.941 27.6037 362.868 27.1313 362.85 26.62C362.85 26.1087 362.928 25.6407 363.084 25.216C363.24 24.7913 363.457 24.423 363.734 24.111C364.02 23.799 364.354 23.5563 364.735 23.383C365.125 23.2097 365.55 23.123 366.009 23.123C366.607 23.123 367.101 23.2487 367.491 23.5C367.89 23.7427 368.206 24.0547 368.44 24.436C368.683 24.8173 368.848 25.2333 368.934 25.684C369.03 26.1347 369.069 26.5637 369.051 26.971H364.02C364.012 27.2657 364.046 27.5473 364.124 27.816C364.202 28.076 364.328 28.31 364.501 28.518C364.675 28.7173 364.896 28.8777 365.164 28.999C365.433 29.1203 365.749 29.181 366.113 29.181C366.581 29.181 366.963 29.0727 367.257 28.856C367.561 28.6393 367.76 28.31 367.855 27.868H368.947ZM370.067 23.279H371.107V24.345H371.133C371.592 23.5303 372.32 23.123 373.317 23.123C373.759 23.123 374.127 23.1837 374.422 23.305C374.716 23.4263 374.955 23.5953 375.137 23.812C375.319 24.0287 375.444 24.2887 375.514 24.592C375.592 24.8867 375.631 25.216 375.631 25.58V30H374.526V25.45C374.526 25.034 374.404 24.7047 374.162 24.462C373.919 24.2193 373.585 24.098 373.161 24.098C372.823 24.098 372.528 24.15 372.277 24.254C372.034 24.358 371.83 24.5053 371.666 24.696C371.501 24.8867 371.375 25.112 371.289 25.372C371.211 25.6233 371.172 25.9007 371.172 26.204V30H370.067V23.279ZM378.694 23.279H380.033V24.254H378.694V28.427C378.694 28.557 378.703 28.661 378.72 28.739C378.746 28.817 378.79 28.8777 378.85 28.921C378.911 28.9643 378.993 28.9947 379.097 29.012C379.21 29.0207 379.353 29.025 379.526 29.025H380.033V30H379.188C378.902 30 378.655 29.9827 378.447 29.948C378.248 29.9047 378.083 29.831 377.953 29.727C377.832 29.623 377.741 29.4757 377.68 29.285C377.62 29.0943 377.589 28.843 377.589 28.531V24.254H376.445V23.279H377.589V21.264H378.694V23.279ZM386.153 23.279H387.492V24.254H386.153V28.427C386.153 28.557 386.162 28.661 386.179 28.739C386.205 28.817 386.248 28.8777 386.309 28.921C386.37 28.9643 386.452 28.9947 386.556 29.012C386.669 29.0207 386.812 29.025 386.985 29.025H387.492V30H386.647C386.361 30 386.114 29.9827 385.906 29.948C385.707 29.9047 385.542 29.831 385.412 29.727C385.291 29.623 385.2 29.4757 385.139 29.285C385.078 29.0943 385.048 28.843 385.048 28.531V24.254H383.904V23.279H385.048V21.264H386.153V23.279ZM389.396 26.646C389.396 27.0533 389.448 27.4173 389.552 27.738C389.664 28.05 389.816 28.3143 390.007 28.531C390.197 28.739 390.418 28.8993 390.67 29.012C390.93 29.1247 391.203 29.181 391.489 29.181C391.775 29.181 392.043 29.1247 392.295 29.012C392.555 28.8993 392.78 28.739 392.971 28.531C393.161 28.3143 393.309 28.05 393.413 27.738C393.525 27.4173 393.582 27.0533 393.582 26.646C393.582 26.2387 393.525 25.879 393.413 25.567C393.309 25.2463 393.161 24.9777 392.971 24.761C392.78 24.5443 392.555 24.3797 392.295 24.267C392.043 24.1543 391.775 24.098 391.489 24.098C391.203 24.098 390.93 24.1543 390.67 24.267C390.418 24.3797 390.197 24.5443 390.007 24.761C389.816 24.9777 389.664 25.2463 389.552 25.567C389.448 25.879 389.396 26.2387 389.396 26.646ZM388.226 26.646C388.226 26.152 388.295 25.6927 388.434 25.268C388.572 24.8347 388.78 24.462 389.058 24.15C389.335 23.8293 389.677 23.578 390.085 23.396C390.492 23.214 390.96 23.123 391.489 23.123C392.026 23.123 392.494 23.214 392.893 23.396C393.3 23.578 393.642 23.8293 393.92 24.15C394.197 24.462 394.405 24.8347 394.544 25.268C394.682 25.6927 394.752 26.152 394.752 26.646C394.752 27.14 394.682 27.5993 394.544 28.024C394.405 28.4487 394.197 28.8213 393.92 29.142C393.642 29.454 393.3 29.701 392.893 29.883C392.494 30.0563 392.026 30.143 391.489 30.143C390.96 30.143 390.492 30.0563 390.085 29.883C389.677 29.701 389.335 29.454 389.058 29.142C388.78 28.8213 388.572 28.4487 388.434 28.024C388.295 27.5993 388.226 27.14 388.226 26.646ZM400.947 23.279H402.286V24.254H400.947V28.427C400.947 28.557 400.955 28.661 400.973 28.739C400.999 28.817 401.042 28.8777 401.103 28.921C401.163 28.9643 401.246 28.9947 401.35 29.012C401.462 29.0207 401.605 29.025 401.779 29.025H402.286V30H401.441C401.155 30 400.908 29.9827 400.7 29.948C400.5 29.9047 400.336 29.831 400.206 29.727C400.084 29.623 399.993 29.4757 399.933 29.285C399.872 29.0943 399.842 28.843 399.842 28.531V24.254H398.698V23.279H399.842V21.264H400.947V23.279ZM403.383 20.718H404.488V24.267H404.514C404.601 24.059 404.722 23.8857 404.878 23.747C405.034 23.5997 405.208 23.4827 405.398 23.396C405.598 23.3007 405.801 23.2313 406.009 23.188C406.226 23.1447 406.434 23.123 406.633 23.123C407.075 23.123 407.444 23.1837 407.738 23.305C408.033 23.4263 408.271 23.5953 408.453 23.812C408.635 24.0287 408.761 24.2887 408.83 24.592C408.908 24.8867 408.947 25.216 408.947 25.58V30H407.842V25.45C407.842 25.034 407.721 24.7047 407.478 24.462C407.236 24.2193 406.902 24.098 406.477 24.098C406.139 24.098 405.845 24.15 405.593 24.254C405.351 24.358 405.147 24.5053 404.982 24.696C404.818 24.8867 404.692 25.112 404.605 25.372C404.527 25.6233 404.488 25.9007 404.488 26.204V30H403.383V20.718ZM415.144 25.996C415.127 25.736 415.066 25.489 414.962 25.255C414.867 25.021 414.732 24.8217 414.559 24.657C414.394 24.4837 414.195 24.3493 413.961 24.254C413.736 24.15 413.484 24.098 413.207 24.098C412.921 24.098 412.661 24.15 412.427 24.254C412.202 24.3493 412.007 24.4837 411.842 24.657C411.677 24.8303 411.547 25.034 411.452 25.268C411.357 25.4933 411.3 25.736 411.283 25.996H415.144ZM416.21 27.868C416.063 28.622 415.738 29.1897 415.235 29.571C414.732 29.9523 414.1 30.143 413.337 30.143C412.8 30.143 412.332 30.0563 411.933 29.883C411.543 29.7097 411.214 29.467 410.945 29.155C410.676 28.843 410.473 28.4703 410.334 28.037C410.204 27.6037 410.13 27.1313 410.113 26.62C410.113 26.1087 410.191 25.6407 410.347 25.216C410.503 24.7913 410.72 24.423 410.997 24.111C411.283 23.799 411.617 23.5563 411.998 23.383C412.388 23.2097 412.813 23.123 413.272 23.123C413.87 23.123 414.364 23.2487 414.754 23.5C415.153 23.7427 415.469 24.0547 415.703 24.436C415.946 24.8173 416.11 25.2333 416.197 25.684C416.292 26.1347 416.331 26.5637 416.314 26.971H411.283C411.274 27.2657 411.309 27.5473 411.387 27.816C411.465 28.076 411.591 28.31 411.764 28.518C411.937 28.7173 412.158 28.8777 412.427 28.999C412.696 29.1203 413.012 29.181 413.376 29.181C413.844 29.181 414.225 29.0727 414.52 28.856C414.823 28.6393 415.023 28.31 415.118 27.868H416.21ZM421.494 27.881C421.502 28.1237 421.559 28.3317 421.663 28.505C421.767 28.6697 421.901 28.804 422.066 28.908C422.239 29.0033 422.43 29.0727 422.638 29.116C422.854 29.1593 423.075 29.181 423.301 29.181C423.474 29.181 423.656 29.168 423.847 29.142C424.037 29.116 424.211 29.0683 424.367 28.999C424.531 28.9297 424.666 28.83 424.77 28.7C424.874 28.5613 424.926 28.388 424.926 28.18C424.926 27.894 424.817 27.6773 424.601 27.53C424.384 27.3827 424.111 27.2657 423.782 27.179C423.461 27.0837 423.11 27.0013 422.729 26.932C422.347 26.854 421.992 26.75 421.663 26.62C421.342 26.4813 421.073 26.2907 420.857 26.048C420.64 25.8053 420.532 25.4673 420.532 25.034C420.532 24.696 420.605 24.4057 420.753 24.163C420.909 23.9203 421.104 23.7253 421.338 23.578C421.58 23.422 421.849 23.3093 422.144 23.24C422.447 23.162 422.746 23.123 423.041 23.123C423.422 23.123 423.773 23.1577 424.094 23.227C424.414 23.2877 424.696 23.4003 424.939 23.565C425.19 23.721 425.389 23.9377 425.537 24.215C425.684 24.4837 425.771 24.8217 425.797 25.229H424.692C424.674 25.0123 424.618 24.8347 424.523 24.696C424.427 24.5487 424.306 24.4317 424.159 24.345C424.011 24.2583 423.847 24.1977 423.665 24.163C423.491 24.1197 423.314 24.098 423.132 24.098C422.967 24.098 422.798 24.111 422.625 24.137C422.46 24.163 422.308 24.2107 422.17 24.28C422.031 24.3407 421.918 24.4273 421.832 24.54C421.745 24.644 421.702 24.7827 421.702 24.956C421.702 25.1467 421.767 25.307 421.897 25.437C422.035 25.5583 422.209 25.6623 422.417 25.749C422.625 25.827 422.859 25.8963 423.119 25.957C423.379 26.009 423.639 26.0653 423.899 26.126C424.176 26.1867 424.445 26.2603 424.705 26.347C424.973 26.4337 425.207 26.5507 425.407 26.698C425.615 26.8367 425.779 27.0143 425.901 27.231C426.031 27.4477 426.096 27.7163 426.096 28.037C426.096 28.4443 426.009 28.7823 425.836 29.051C425.671 29.3197 425.45 29.5363 425.173 29.701C424.904 29.8657 424.596 29.9783 424.25 30.039C423.912 30.1083 423.574 30.143 423.236 30.143C422.863 30.143 422.508 30.104 422.17 30.026C421.832 29.948 421.533 29.8223 421.273 29.649C421.013 29.467 420.805 29.233 420.649 28.947C420.493 28.6523 420.406 28.297 420.389 27.881H421.494ZM428.722 23.279H430.061V24.254H428.722V28.427C428.722 28.557 428.73 28.661 428.748 28.739C428.774 28.817 428.817 28.8777 428.878 28.921C428.938 28.9643 429.021 28.9947 429.125 29.012C429.237 29.0207 429.38 29.025 429.554 29.025H430.061V30H429.216C428.93 30 428.683 29.9827 428.475 29.948C428.275 29.9047 428.111 29.831 427.981 29.727C427.859 29.623 427.768 29.4757 427.708 29.285C427.647 29.0943 427.617 28.843 427.617 28.531V24.254H426.473V23.279H427.617V21.264H428.722V23.279ZM431.964 26.646C431.964 27.0533 432.016 27.4173 432.12 27.738C432.233 28.05 432.384 28.3143 432.575 28.531C432.766 28.739 432.987 28.8993 433.238 29.012C433.498 29.1247 433.771 29.181 434.057 29.181C434.343 29.181 434.612 29.1247 434.863 29.012C435.123 28.8993 435.348 28.739 435.539 28.531C435.73 28.3143 435.877 28.05 435.981 27.738C436.094 27.4173 436.15 27.0533 436.15 26.646C436.15 26.2387 436.094 25.879 435.981 25.567C435.877 25.2463 435.73 24.9777 435.539 24.761C435.348 24.5443 435.123 24.3797 434.863 24.267C434.612 24.1543 434.343 24.098 434.057 24.098C433.771 24.098 433.498 24.1543 433.238 24.267C432.987 24.3797 432.766 24.5443 432.575 24.761C432.384 24.9777 432.233 25.2463 432.12 25.567C432.016 25.879 431.964 26.2387 431.964 26.646ZM430.794 26.646C430.794 26.152 430.863 25.6927 431.002 25.268C431.141 24.8347 431.349 24.462 431.626 24.15C431.903 23.8293 432.246 23.578 432.653 23.396C433.06 23.214 433.528 23.123 434.057 23.123C434.594 23.123 435.062 23.214 435.461 23.396C435.868 23.578 436.211 23.8293 436.488 24.15C436.765 24.462 436.973 24.8347 437.112 25.268C437.251 25.6927 437.32 26.152 437.32 26.646C437.32 27.14 437.251 27.5993 437.112 28.024C436.973 28.4487 436.765 28.8213 436.488 29.142C436.211 29.454 435.868 29.701 435.461 29.883C435.062 30.0563 434.594 30.143 434.057 30.143C433.528 30.143 433.06 30.0563 432.653 29.883C432.246 29.701 431.903 29.454 431.626 29.142C431.349 28.8213 431.141 28.4487 431.002 28.024C430.863 27.5993 430.794 27.14 430.794 26.646ZM438.454 23.279H439.494V24.696H439.52C439.789 24.15 440.118 23.747 440.508 23.487C440.898 23.227 441.392 23.1057 441.99 23.123V24.293C441.548 24.293 441.171 24.3537 440.859 24.475C440.547 24.5963 440.296 24.774 440.105 25.008C439.914 25.242 439.776 25.528 439.689 25.866C439.602 26.1953 439.559 26.5767 439.559 27.01V30H438.454V23.279ZM447.131 25.996C447.113 25.736 447.053 25.489 446.949 25.255C446.853 25.021 446.719 24.8217 446.546 24.657C446.381 24.4837 446.182 24.3493 445.948 24.254C445.722 24.15 445.471 24.098 445.194 24.098C444.908 24.098 444.648 24.15 444.414 24.254C444.188 24.3493 443.993 24.4837 443.829 24.657C443.664 24.8303 443.534 25.034 443.439 25.268C443.343 25.4933 443.287 25.736 443.27 25.996H447.131ZM448.197 27.868C448.049 28.622 447.724 29.1897 447.222 29.571C446.719 29.9523 446.086 30.143 445.324 30.143C444.786 30.143 444.318 30.0563 443.92 29.883C443.53 29.7097 443.2 29.467 442.932 29.155C442.663 28.843 442.459 28.4703 442.321 28.037C442.191 27.6037 442.117 27.1313 442.1 26.62C442.1 26.1087 442.178 25.6407 442.334 25.216C442.49 24.7913 442.706 24.423 442.984 24.111C443.27 23.799 443.603 23.5563 443.985 23.383C444.375 23.2097 444.799 23.123 445.259 23.123C445.857 23.123 446.351 23.2487 446.741 23.5C447.139 23.7427 447.456 24.0547 447.69 24.436C447.932 24.8173 448.097 25.2333 448.184 25.684C448.279 26.1347 448.318 26.5637 448.301 26.971H443.27C443.261 27.2657 443.296 27.5473 443.374 27.816C443.452 28.076 443.577 28.31 443.751 28.518C443.924 28.7173 444.145 28.8777 444.414 28.999C444.682 29.1203 444.999 29.181 445.363 29.181C445.831 29.181 446.212 29.0727 446.507 28.856C446.81 28.6393 447.009 28.31 447.105 27.868H448.197ZM449.563 28.557H451.006V30H449.563V28.557Z" fill="#1F2026"/>
</svg>
